<svg xmlns="http://www.w3.org/2000/svg" viewBox="0 0 339.6 302.16">
  <g data-name="Layer 1" style="isolation:isolate">
    <path fill="#5bba47" d="M310.96 44v200.08c0 16.24-12.38 29.4-27.65 29.4h-241c-15.2 0-27.6-13.16-27.6-29.4V44c0-16.24 12.4-29.4 27.7-29.4h241c15.3 0 27.6 13.16 27.6 29.4z"/>
    <text fill="#010101" transform="translate(46.8 93.53)" font-size="10" font-family="Roboto Slab">
      DOG PEOPLE
    </text>
    <text fill="#010101" transform="translate(170.3 93.53)" font-size="10" font-family="Roboto Slab">
      C<tspan x="6.45" y="0">A</tspan><tspan x="12.9" y="0">T PEOPLE</tspan>
    </text>
    <path fill="#231f20" d="M80.2 129.53a12.67 12.67 0 0 1-12.66 12.67v-25.33a12.66 12.66 0 0 1 12.67 12.66z"/>
    <path fill="#fff200" d="M67.54 116.87v25.33a12.67 12.67 0 0 1 0-25.33z"/>
    <text fill="#010101" transform="translate(88.88 128.63)" font-size="7" font-family="Roboto Slab">
      50% <tspan x="14.42" y="0">m</tspan><tspan x="21" y="0">o</tspan><tspan x="24.92" y="0">r</tspan><tspan x="27.75" y="0">e li</tspan><tspan x="37.76" y="0">k</tspan><tspan x="41.95" y="0">ely </tspan><tspan x="53.63" y="0">t</tspan><tspan x="56.12" y="0">o </tspan><tspan x="0" y="8.4">be conse</tspan><tspan x="29.09" y="8.4">r</tspan><tspan x="32.05" y="8.4">v</tspan><tspan x="35.91" y="8.4">ati</tspan><tspan x="44.63" y="8.4">v</tspan><tspan x="48.49" y="8.4">e</tspan>
    </text>
    <path fill="#231f20" d="M80.2 163.92a12.67 12.67 0 0 1-12.66 12.68v-12.68L55.3 160.7a12.67 12.67 0 0 1 24.9 3.22z"/>
    <path fill="#fff200" d="M67.54 163.92v12.68a12.68 12.68 0 0 1-12.26-15.84v-.06z"/>
    <text fill="#010101" transform="translate(88.88 163.93)" font-size="7" font-family="Roboto Slab">
      28% <tspan x="14.46" y="0">m</tspan><tspan x="21.04" y="0">o</tspan><tspan x="24.97" y="0">r</tspan><tspan x="27.8" y="0">e li</tspan><tspan x="37.81" y="0">k</tspan><tspan x="41.99" y="0">ely </tspan><tspan x="53.67" y="0">t</tspan><tspan x="56.17" y="0">o </tspan><tspan x="0" y="8.4">be students</tspan>
    </text>
    <path fill="#231f20" d="M80.2 198.32A12.67 12.67 0 0 1 67.55 211v-12.7l-12.63.83v-.83a12.7 12.7 0 0 1 .4-3.17v-.06a12.67 12.67 0 0 1 24.9 3.22z"/>
    <path fill="#fff200" d="M67.54 198.32V211a12.66 12.66 0 0 1-12.63-11.85z"/>
    <text fill="#010101" transform="translate(88.88 198.32)" font-size="7" font-family="Roboto Slab">
      24% <tspan x="14.65" y="0">m</tspan><tspan x="21.23" y="0">o</tspan><tspan x="25.16" y="0">r</tspan><tspan x="27.99" y="0">e li</tspan><tspan x="38" y="0">k</tspan><tspan x="42.18" y="0">ely </tspan><tspan x="53.86" y="0">t</tspan><tspan x="56.36" y="0">o </tspan><tspan x="0" y="8.4">h</tspan><tspan x="4.52" y="8.4">a</tspan><tspan x="8.32" y="8.4">v</tspan><tspan x="12.19" y="8.4">e kids</tspan>
    </text>
    <path fill="#231f20" d="M80.2 232.7a12.67 12.67 0 0 1-12.66 12.68V232.7l-11.1-6.05a12.66 12.66 0 0 1 23.77 6.06z"/>
    <path fill="#fff200" d="M67.54 232.7v12.68a12.66 12.66 0 0 1-12.63-11.84v-.83a12.7 12.7 0 0 1 .4-3.1 12.5 12.5 0 0 1 1.2-2.8z"/>
    <text fill="#010101" transform="translate(88.88 232.72)" font-size="7" font-family="Roboto Slab">
      30% <tspan x="14.5" y="0">m</tspan><tspan x="21.08" y="0">o</tspan><tspan x="25.01" y="0">r</tspan><tspan x="27.84" y="0">e li</tspan><tspan x="37.85" y="0">k</tspan><tspan x="42.03" y="0">ely </tspan><tspan x="53.71" y="0">t</tspan><tspan x="56.21" y="0">o </tspan><tspan x="0" y="8.4">li</tspan><tspan x="4.5" y="8.4">v</tspan><tspan x="8.37" y="8.4">e in a rural a</tspan><tspan x="49.71" y="8.4">r</tspan><tspan x="52.54" y="8.4">ea</tspan>
    </text>
    <path fill="#231f20" d="M204.6 129.53a12.67 12.67 0 0 1-12.67 12.67v-12.67l-11.06 6.16a12.66 12.66 0 1 1 23.73-6.2z"/>
    <path fill="#fff200" d="M191.93 129.53v12.67a12.65 12.65 0 0 1-11.06-6.5z"/>
    <text fill="#010101" transform="translate(213.27 123.63)" font-size="7" font-family="Roboto Slab">
      17% <tspan x="13.47" y="0">m</tspan><tspan x="20.05" y="0">o</tspan><tspan x="23.98" y="0">r</tspan><tspan x="26.81" y="0">e li</tspan><tspan x="36.81" y="0">k</tspan><tspan x="41" y="0">ely </tspan><tspan x="52.68" y="0">t</tspan><tspan x="55.18" y="0">o </tspan><tspan x="0" y="8.4">h</tspan><tspan x="4.52" y="8.4">a</tspan><tspan x="8.32" y="8.4">v</tspan><tspan x="12.19" y="8.4">e com</tspan><tspan x="32" y="8.4">p</tspan><tspan x="36.21" y="8.4">leted a </tspan><tspan x="0" y="16.8">graduate deg</tspan><tspan x="43.01" y="16.8">r</tspan><tspan x="45.84" y="16.8">ee</tspan>
    </text>
    <path fill="#231f20" d="M204.6 163.92a12.67 12.67 0 0 1-12.67 12.68v-12.68l-12.1-3.75a12.66 12.66 0 0 1 24.77 3.75z"/>
    <text fill="#010101" transform="translate(213.27 163.93)" font-size="7" font-family="Roboto Slab">
      29% <tspan x="14.54" y="0">m</tspan><tspan x="21.12" y="0">o</tspan><tspan x="25.05" y="0">r</tspan><tspan x="27.88" y="0">e li</tspan><tspan x="37.88" y="0">k</tspan><tspan x="42.07" y="0">ely </tspan><tspan x="53.75" y="0">t</tspan><tspan x="56.25" y="0">o </tspan><tspan x="0" y="8.4">li</tspan><tspan x="4.5" y="8.4">v</tspan><tspan x="8.37" y="8.4">e in t</tspan><tspan x="24.98" y="8.4">h</tspan><tspan x="29.46" y="8.4">e city</tspan>
    </text>
    <path fill="#fff200" d="M191.93 198.32V211a12.66 12.66 0 0 1-12.63-11.85v-.83a12.7 12.7 0 0 1 .4-3.17v-.06a12.58 12.58 0 0 1 2.32-4.7z"/>
    <path fill="#231f20" d="M204.6 198.32A12.67 12.67 0 0 1 191.93 211v-12.7l-9.9-7.85a12.66 12.66 0 0 1 22.57 7.85z"/>
    <text fill="#010101" transform="translate(213.27 198.32)" font-size="7" font-family="Roboto Slab">
      39% <tspan x="14.45" y="0">m</tspan><tspan x="21.03" y="0">o</tspan><tspan x="24.96" y="0">r</tspan><tspan x="27.79" y="0">e li</tspan><tspan x="37.8" y="0">k</tspan><tspan x="41.99" y="0">ely </tspan><tspan x="53.67" y="0">t</tspan><tspan x="56.16" y="0">o </tspan><tspan x="0" y="8.4">r</tspan><tspan x="2.83" y="8.4">ent t</tspan><tspan x="17.96" y="8.4">h</tspan><tspan x="22.45" y="8.4">eir </tspan><tspan x="33.15" y="8.4">h</tspan><tspan x="37.63" y="8.4">o</tspan><tspan x="41.56" y="8.4">m</tspan><tspan x="48.14" y="8.4">e</tspan>
    </text>
    <text fill="#010101" transform="translate(216.27 231.97)" font-size="7" font-family="Roboto Slab">
      Mo<tspan x="10.44" y="0">r</tspan><tspan x="13.27" y="0">e li</tspan><tspan x="23.28" y="0">k</tspan><tspan x="27.46" y="0">ely </tspan><tspan x="39.14" y="0">t</tspan><tspan x="41.64" y="0">o li</tspan><tspan x="51.81" y="0">v</tspan><tspan x="55.67" y="0">e in</tspan><tspan x="0" y="8.4">E</tspan><tspan x="4.41" y="8.4">u</tspan><tspan x="8.66" y="8.4">r</tspan><tspan x="11.48" y="8.4">ope or Oceania</tspan>
    </text>
    <text fill="#010101" transform="translate(46.8 102.7)" font-size="6" font-family="Roboto Slab">
      Slightly <tspan x="23.77" y="0">m</tspan><tspan x="29.41" y="0">o</tspan><tspan x="32.77" y="0">r</tspan><tspan x="35.2" y="0">e li</tspan><tspan x="43.78" y="0">k</tspan><tspan x="47.36" y="0">ely </tspan><tspan x="57.38" y="0">t</tspan><tspan x="59.51" y="0">o be male</tspan>
    </text>
    <text fill="#010101" transform="translate(170.3 102.7)" font-size="6" font-family="Roboto Slab">
      Slightly <tspan x="23.77" y="0">m</tspan><tspan x="29.41" y="0">o</tspan><tspan x="32.77" y="0">r</tspan><tspan x="35.2" y="0">e li</tspan><tspan x="43.78" y="0">k</tspan><tspan x="47.36" y="0">ely </tspan><tspan x="57.38" y="0">t</tspan><tspan x="59.51" y="0">o be </tspan><tspan x="72.56" y="0">f</tspan><tspan x="74.63" y="0">emale, s</tspan><tspan x="97.67" y="0">k</tspan><tspan x="101.26" y="0">ew liberal</tspan>
    </text>
    <path fill="#fff200" d="M191.93 163.92v12.68a12.68 12.68 0 0 1-12.26-15.84v-.06l.15-.52z"/>
    <path d="M199.45 245.6a.6.6 0 0 1-.56-.36c-.1-.23-.2-.47-.2-.7a.92.92 0 0 0-.2-.2l-.2-.26-.1.12a.56.56 0 0 1 0-.22.77.77 0 0 0 0-.6.7.7 0 0 1 0-.18.37.37 0 0 0 0-.17.9.9 0 0 1-.2-.53.84.84 0 0 0-.2-.33h-.1l-.3.35h-.1a.73.73 0 0 1-.1-.24.38.38 0 0 0-.3-.4 6.68 6.68 0 0 1-.4-.63l-.5.07-.1-.16-.3.26a.34.34 0 0 1-.2.4 1.24 1.24 0 0 0-.5.56.2.2 0 0 1-.1.08.57.57 0 0 0-.3.64v.43a.4.4 0 0 0 0 .14c0 .1.1.18-.1.22l-.2.3a.16.16 0 0 1-.3 0l-.2-.6s-.1-.1-.1-.2l-.2-.3-.2-.4a3.2 3.2 0 0 1-.3-.6 1.77 1.77 0 0 1-.1-.7.94.94 0 0 0-.1-.3.12.12 0 0 0-.1.1.2.2 0 0 1-.1.2.22.22 0 0 1-.2 0 3.67 3.67 0 0 1-.3-.3l.2-.2a.3.3 0 0 1-.3-.2.52.52 0 0 0-.3-.1.3.3 0 0 1-.2-.1.54.54 0 0 0-.7-.2 2.4 2.4 0 0 1-.9 0 .35.35 0 0 1-.2-.2.2.2 0 0 0-.3-.1.36.36 0 0 1-.4 0 .55.55 0 0 0-.2-.1.32.32 0 0 1-.4-.3.5.5 0 0 0-.1-.2c-.2-.2-.3-.1-.4 0a1.56 1.56 0 0 0 .2.5 2.9 2.9 0 0 1 .4.5.37.37 0 0 0 .6 0l.4-.5a.36.36 0 0 1 0 .1.35.35 0 0 0 .2.4.63.63 0 0 1 .4.4.22.22 0 0 1 0 .1l-.2.3a1.35 1.35 0 0 1-.4.5.7.7 0 0 1-.4.3 1.13 1.13 0 0 0-.2.1.27.27 0 0 1-.1.1l-.5.1-.7.3-.17.1a.28.28 0 0 1-.4-.2.6.6 0 0 1-.1-.3 1.1 1.1 0 0 0-.3-.7.8.8 0 0 0-.3-.4.5.5 0 0 1-.2-.3.45.45 0 0 0-.3-.5.37.37 0 0 1-.1-.2l-.5-.7a1 1 0 0 1-.1-.3c-.2.1 0 .2-.07.4a.44.44 0 0 1-.2-.3 2.33 2.33 0 0 1-.2-.3h-.1a.34.34 0 0 0 0 .1l.2.3.3.5a1.92 1.92 0 0 0 .3.2.14.14 0 0 0 0 .22 1.36 1.36 0 0 1 .33.7 1.53 1.53 0 0 0 .1.2.65.65 0 0 1 .2.4.14.14 0 0 0 .1.1l.4.4.26.1a.15.15 0 0 1 .1.2.27.27 0 0 0 .1.2.82.82 0 0 0 .2.2l1-.3.2-.06a.16.16 0 0 1 .1 0 .13.13 0 0 1 0 .1 1.42 1.42 0 0 1-.2.6.12.12 0 0 0 0 .1 1.86 1.86 0 0 1-.7 1.1 5.9 5.9 0 0 0-.6.5c-.16.1-.3.3-.4.5a.83.83 0 0 0-.2.8 4.68 4.68 0 0 1 .04.5.1.1 0 0 0 0 .1.7.7 0 0 1 .1.6.85.85 0 0 1 0 .2 1.73 1.73 0 0 0 0 .1.24.24 0 0 1 0 .2.64.64 0 0 1-.5.26.13.13 0 0 0-.1 0 .84.84 0 0 1-.4.3.3.3 0 0 0-.1.3 2.57 2.57 0 0 1 0 .6.42.42 0 0 1-.3.3.6.6 0 0 0-.2.1.25.25 0 0 0-.04.2.48.48 0 0 1-.2.4 3.4 3.4 0 0 0-.4.4.4.4 0 0 1-.1.1 1.15 1.15 0 0 0-.4.4.5.5 0 0 1-.4.13c-.2 0-.4 0-.6.1a1.28 1.28 0 0 0-.3.15.14.14 0 0 1-.1 0 .6.6 0 0 1-.3-.3.13.13 0 0 0 0-.1.13.13 0 0 1 0-.2.2.2 0 0 0 0-.3.64.64 0 0 1-.2-.4.15.15 0 0 0-.1-.1.35.35 0 0 1-.1-.3c0-.2-.1-.4-.1-.6v-.3a1 1 0 0 0-.1-.2 1.77 1.77 0 0 1-.3-.56 1.35 1.35 0 0 1 .3-1.1.4.4 0 0 0 0-.5.47.47 0 0 1 0-.3.18.18 0 0 0 0-.1 1.87 1.87 0 0 0-.6-.88 1.12 1.12 0 0 1-.2-.4 1.65 1.65 0 0 0 .2-1l-.3-.16a1.48 1.48 0 0 1-.4 0 .5.5 0 0 1-.3-.2.37.37 0 0 0-.4-.2l-.8.3a.5.5 0 0 1-.2 0 1 1 0 0 0-.7.1.45.45 0 0 1-.7-.1.85.85 0 0 0-.5-.4.2.2 0 0 1-.1-.1l-.4-.6a.34.34 0 0 0-.2-.2.2.2 0 0 1-.1-.2.36.36 0 0 0-.1-.3.33.33 0 0 1 0-.1l.1-.2a.42.42 0 0 1 0-.1.3.3 0 0 0 0-.3.3.3 0 0 1 0-.3.2.2 0 0 0 0-.1.16.16 0 0 1 0-.2.82.82 0 0 0 .1-.2.35.35 0 0 1 .2-.23 2.1 2.1 0 0 1 .4-.6.17.17 0 0 1 .1-.1c.1-.1.3-.1.4-.2a.27.27 0 0 0 .1-.2.8.8 0 0 1 .4-.8.76.76 0 0 0 .3-.44.34.34 0 0 0-.4-.2.16.16 0 0 1-.16-.1 1.67 1.67 0 0 1 0-.6 1.7 1.7 0 0 0 0-.5c0-.2 0-.3.3-.26a6 6 0 0 0 .7 0c.4 0 .4 0 .5-.4a.5.5 0 0 0 0-.3 2.12 2.12 0 0 0-.4-.4.38.38 0 0 0-.2 0v-.2h.4v-.2a.34.34 0 0 1 .1 0c.1.07.1.06.2 0a.62.62 0 0 1 .1-.1.2.2 0 0 0 .1-.04.67.67 0 0 1 .3-.3l.25-.3h.1l-.1-.2a.1.1 0 0 1 .1 0 .2.2 0 0 0 .3-.1.5.5 0 0 1 .2 0 4.3 4.3 0 0 0-.1-.5c0-.1 0-.1.1-.1a.84.84 0 0 0 .2-.2 2.22 2.22 0 0 0 .2.2.2.2 0 0 0 .1.08.4.4 0 0 0 .1-.2.23.23 0 0 0-.1-.2.7.7 0 0 1-.2-.5.38.38 0 0 0-.1-.2 1.12 1.12 0 0 1-.2.3.52.52 0 0 1-.3.1c-.2 0-.3-.1-.2-.3v-.2l-.1-.3h.26l-.2-.1h.3-.2l.2-.1c.1 0 .2-.1.1-.3l.36.1-.2-.12.1-.1c.14.2.3.1.44-.1l-.2.1a.68.68 0 0 1-.2 0 .47.47 0 0 1 0-.1 1 1 0 0 0 .3-.4.73.73 0 0 1 .2-.23l-.1-.2c0-.1.25-.1.2-.3l.4-.3.07.1.2-.14v-.1c0-.1.2 0 .3.06v.03-.14h.18v-.1l.1.1.1-.1.1.17.1-.2.4.17-.2.1.5.1c0 .1 0 .13.2.1a.94.94 0 0 1 .7.2.67.67 0 0 0 .2.1.37.37 0 0 1 .2.5.5.5 0 0 1-.4.1c-.3 0-.5-.1-.7-.2a.85.85 0 0 0-.3 0 2.65 2.65 0 0 1 .3.2.33.33 0 0 1 .1.2.4.4 0 0 0 .4.4 1.1 1.1 0 0 0 .3 0l-.37-.3a.45.45 0 0 1 .13 0 .28.28 0 0 0 .4-.08c-.1-.1-.1-.3 0-.3.1-.2.1-.2.3 0h.1a.3.3 0 0 0-.1-.3.12.12 0 0 1-.1-.1.37.37 0 0 0-.2-.3 3.52 3.52 0 0 0 .4 0 .32.32 0 0 1 .2.2l-.22.1a.33.33 0 0 0 .4.2 1.94 1.94 0 0 1 0-.2.45.45 0 0 1 .2-.3 1 1 0 0 0 .5-.3.3.3 0 0 1 .2 0 .35.35 0 0 0-.2.4h.2c0-.2 0-.2.2-.2a1.6 1.6 0 0 0 .4-.14l.1.1h.1v-.2s0-.2.2-.2h.5l.5.1a.36.36 0 0 0-.4-.3 2.6 2.6 0 0 0 .02-.3.2.2 0 0 0 0-.1c-.2-.2-.1-.2 0-.3h.1v-.6a2.2 2.2 0 0 0 .3 0c.2 0 .2 0 .2.2a.26.26 0 0 0 .1.2.15.15 0 0 1 0 .2l.4.5v.2a.58.58 0 0 1 0 .2.85.85 0 0 1-.1.3.65.65 0 0 1-.3.1h.2a1.57 1.57 0 0 0 .2 0 .24.24 0 0 0 .1-.1.72.72 0 0 0 .1-.2.57.57 0 0 0 0-.2.3.3 0 0 1 .1-.33.46.46 0 0 1 .35.4c0 .2.2.1.32.1a.55.55 0 0 1-.4-.36.3.3 0 0 0-.5-.1 1.22 1.22 0 0 1-.2 0c.1-.2-.2-.3 0-.5a2.7 2.7 0 0 1-.2-.3.24.24 0 0 1 0-.2.3.3 0 0 0 0-.4c.15 0 .2.1.2.2 0 .3 0 .4.35.4h.2c0-.1 0-.1-.2-.1a.93.93 0 0 1-.4 0 .34.34 0 0 1-.1-.2 1.5 1.5 0 0 1 .25 0 .24.24 0 0 1 .1.1l-.1-.2.1-.1-.1-.06a1 1 0 0 1 .2 0 1.25 1.25 0 0 1 .2.1.27.27 0 0 0 .3 0s.1 0 .1.1a.67.67 0 0 1 0 .08.4.4 0 0 0 .2.57.26.26 0 0 0 .1 0 .25.25 0 0 0-.1-.1.18.18 0 0 1-.1-.3.15.15 0 0 0 0-.1l-.2-.3-.3-.1a.5.5 0 0 1-.2-.3.14.14 0 0 1 .1-.1l.3-.1a.23.23 0 0 0 .1-.05.1.1 0 0 1 .2 0l-.1.1c.3-.1.3-.3.1-.4a.8.8 0 0 1-.1-.3.28.28 0 0 0 .24-.2.37.37 0 0 1 .2-.1c.1 0 .1 0 .1-.1l.4-.3a.72.72 0 0 0 .6 0l-.2-.2c.1-.1.2-.2.3 0l.1-.15h-.1a.18.18 0 0 1-.1-.23c0-.1.1-.2.1-.22a.37.37 0 0 1 .1-.1l.1.1s0 .1.1.2v.05l.3.1a.82.82 0 0 1 .5-.2 1.22 1.22 0 0 0 .2-.06.18.18 0 0 1 .1 0 3 3 0 0 1 .4.1.4.4 0 0 1 .1.2l-.3.1c.2.1.38.1.3.3a4.63 4.63 0 0 1-.3.4 2 2 0 0 1-.3.27.54.54 0 0 0-.2.4l.3-.1v-.1l.6-.22h-.2a.2.2 0 0 1 .3-.1c.1 0 .1 0 .1-.1a.47.47 0 0 1 .2.3.2.2 0 0 0 0-.1c0-.13.1-.2.2-.2l.3-.1a.12.12 0 0 1 .2 0c0 .1.1.1.18 0a2.16 2.16 0 0 1 .3-.1h.2l-.16-.1a.72.72 0 0 1 0-.2.15.15 0 0 1 .1-.1.54.54 0 0 0 .3 0 1.44 1.44 0 0 1 .46 0l-.3.3a.14.14 0 0 0 0 .3v-.2l.2.06a.46.46 0 0 0 .1 0c.1 0 .2 0 .2.1a1.9 1.9 0 0 0 .3.2.55.55 0 0 0 .2 0 .43.43 0 0 1-.1-.4c.1.4.35.2.56.27l-.1-.2h.6v-.4l-.2.1a1.76 1.76 0 0 0 .1-.1.82.82 0 0 0 0-.1v-.1l.5-.1.3-.07a.15.15 0 0 1 .1 0 .53.53 0 0 1 0 .1v.1a.57.57 0 0 0 .15 0 .26.26 0 0 0 0-.1.82.82 0 0 1 0-.3 1.14 1.14 0 0 1 .36 0l-.1.2h.8a.82.82 0 0 1 .1-.2 2.4 2.4 0 0 1 .5-.2.83.83 0 0 1 .3 0 .13.13 0 0 1 .1.1.3.3 0 0 0 .2.3h.1a.52.52 0 0 1 .4-.3l.4-.1.6.17a.2.2 0 0 0-.1-.3l-.1-.2a2.34 2.34 0 0 1 .3-.1.73.73 0 0 0 .4-.1.48.48 0 0 1 .3-.06h.5a.3.3 0 0 1 .2 0l.4.22a.44.44 0 0 0 .2 0 .56.56 0 0 0 .5 0 1.17 1.17 0 0 1 .1.2.35.35 0 0 0 .36.23l-.3-.3a2.23 2.23 0 0 1 .5-.1 2.3 2.3 0 0 1 .5.2v.4h-.2l.3.4a.26.26 0 0 1-.4 0 .45.45 0 0 1-.1.1l-.4-.2v.1a.27.27 0 0 0-.1 0c-.06.2-.1.1-.2 0l-.2-.1a.2.2 0 0 0 0 .1.43.43 0 0 1 .1.5c0 .1-.06.2.1.22a.1.1 0 0 1 .04.1.4.4 0 0 0 .3.3c.2 0 .1.2.1.3a.45.45 0 0 0-.2 0 .65.65 0 0 0-.2.2 1.53 1.53 0 0 0-.1.4l-.1.5-.02.1a1.6 1.6 0 0 0 0 .25l-.2-.1a.2.2 0 0 0-.34.1 1.8 1.8 0 0 1-.1.2v-.3.4l-.2-.1a.66.66 0 0 0 0 .2c0 .05 0 .1.1.2s0 .25 0 .4v.1c.1-.15.1-.08.2.05a.4.4 0 0 0 .2.3.46.46 0 0 1 .1.2l-.1-.1a.5.5 0 0 0 .1.4c.04.18.1.2-.1.3a.15.15 0 0 0 0 .26.12.12 0 0 1-.1.2.7.7 0 0 1 0 .8.36.36 0 0 1-.1-.08l-.24-.45-.5-.8a3 3 0 0 1-.2-.4.07.07 0 0 1 0-.05c.1-.1 0-.2 0-.3a1.55 1.55 0 0 1 .2-.3 3.06 3.06 0 0 0 .1-.7v-.1l.1-.2a.32.32 0 0 0 .1-.1 1.05 1.05 0 0 0-.1-.24c-.06-.1-.04-.2.15-.3h-.3c0 .1-.2.2 0 .3a.5.5 0 0 1 .1.2h-.2v.4a.43.43 0 0 1-.4-.5 1.23 1.23 0 0 0-.2.2 1.4 1.4 0 0 0-.1.4.52.52 0 0 1 0 .2.2.2 0 0 0 .1.32h.1a.9.9 0 0 1-.1.1l-.4.3a.48.48 0 0 1-.1 0l.1-.1-.4-.1a.15.15 0 0 0-.2 0c0 .1 0 .2-.1.2a2.16 2.16 0 0 0-.2 0l.1.1a.2.2 0 0 1-.1 0 .4.4 0 0 0-.4 0 .24.24 0 0 0-.2.2c-.1.5-.2.9-.3 1.3a.74.74 0 0 1-.2.2l-.1.2a.72.72 0 0 0 .2 0c.1 0 .2 0 .2.1a.38.38 0 0 0 .1.1v-.2c.1 0 0 .1.1.2l.2-.1-.1-.13a.34.34 0 0 1 .4.1.27.27 0 0 1 .2.2.66.66 0 0 0 .1.2.65.65 0 0 1 .1.3.9.9 0 0 0 .14.6.56.56 0 0 1 0 .7.94.94 0 0 0-.1.4v.3l-.2.6a.12.12 0 0 0 0 .1.1.1 0 0 1-.1.2.4.4 0 0 1-.2 0 .13.13 0 0 0-.2 0l.1.1a.37.37 0 0 0-.1.4.2.2 0 0 1 0 .1.76.76 0 0 1-.1.1.1.1 0 0 0 0 .2l.3.3a2 2 0 0 1 .3.64.16.16 0 0 1 0 .1l-.2.2s-.2.2-.3 0a.88.88 0 0 1 0-.2v-.2a.27.27 0 0 1 0-.1c.1-.1 0-.16-.1-.2a1.32 1.32 0 0 0-.26 0c0-.1-.04-.25-.1-.4a.17.17 0 0 0-.12-.1.3.3 0 0 0-.3.16.58.58 0 0 1-.1.1 2.14 2.14 0 0 0 0-.26 1.8 1.8 0 0 0 0-.26 2.22 2.22 0 0 0-.2.1.6.6 0 0 0-.1.1.2.2 0 0 0 0 .1c0 .1 0 .14-.1.1s-.1 0-.1.1a.72.72 0 0 0 .36.34.77.77 0 0 0 .2-.2h.4c-.1.1-.2.2-.3.4a.24.24 0 0 0 0 .4l.4.5.1.1-.15.1a1.6 1.6 0 0 1 .2.1c.1.1.1.2 0 .2a.36.36 0 0 0-.3.2l.4-.1a.12.12 0 0 1 .17.1.32.32 0 0 1-.1.4.46.46 0 0 0-.1.35.54.54 0 0 1-.2.5.3.3 0 0 0 0 .1c-.1.1-.1.18-.2.2a.63.63 0 0 1-.2.1l-.9.5a.2.2 0 0 1-.1.3l-.1-.2a.46.46 0 0 0-.1-.13.54.54 0 0 0-.3.1 2.26 2.26 0 0 0-.3.44.18.18 0 0 0 0 .1 1.67 1.67 0 0 0 .5.5.7.7 0 0 1 .3.4 1.06 1.06 0 0 1 0 .8.24.24 0 0 1 0 .1.55.55 0 0 0-.4.2.5.5 0 0 0-.1.1l-.1.13v-.2a.4.4 0 0 0-.2-.3 1.07 1.07 0 0 1-.2-.3.25.25 0 0 0-.1-.1.35.35 0 0 1-.3-.2h-.1v.2a2.6 2.6 0 0 1-.08.4.23.23 0 0 0 .1.3c.1 0 .2.1.1.2a.15.15 0 0 0 0 .1l.4.4a.8.8 0 0 1 .2.52 1.28 1.28 0 0 0 .1.3z"/>
    <path d="M202.67 249.74l.06.32v-.3h.2v-.16h.1l.1-.23v.1l.1-.16a.63.63 0 0 1 .1-.1.3.3 0 0 1 .12 0 .5.5 0 0 1 .08.4.53.53 0 0 0 0 .2l.12-.1.4.1c-.14-.2-.13-.3.1-.4a.26.26 0 0 1 .25-.3.6.6 0 0 0 .26 0l-.2-.1c.14 0 .22 0 .3.1a.63.63 0 0 0 .54.2.2.2 0 0 1 .16.1.3.3 0 0 1-.08.2.65.65 0 0 0-.26.5.13.13 0 0 0 0 .1 1.64 1.64 0 0 1 .47.5.2.2 0 0 0 .3 0 3.76 3.76 0 0 0 .3-.6.46.46 0 0 0 0-.4.45.45 0 0 0 .1-.3.3.3 0 0 1 0-.1c.1.1.2.2.2.9h.1a.15.15 0 0 1 .1.3.47.47 0 0 0 0 .5.25.25 0 0 1 0 .2.42.42 0 0 0 .1.5.66.66 0 0 1 .2.6v.2l.1-.1.1.2-.1.2a2.86 2.86 0 0 0 .1.5 1 1 0 0 1 0 .6 1.77 1.77 0 0 1-.4.8.94.94 0 0 1-.5.6c-.2.1-.3.3-.4.5l-.5.7a.15.15 0 0 1-.1 0 .45.45 0 0 0-.4.1 1.7 1.7 0 0 1-.3.2l-.2-.3a.37.37 0 0 1-.5 0h-.1c-.3 0-.3-.1-.3-.3.1-.1 0-.3 0-.4a.38.38 0 0 0-.1-.2l.1-.2a.45.45 0 0 1-.4.1l.4-.6a4.56 4.56 0 0 0-.7.5v-.2a.17.17 0 0 0-.1-.2.18.18 0 0 1 0-.2.2.2 0 0 0-.1-.2.7.7 0 0 0-.7-.1 6.87 6.87 0 0 1-.8.1.3.3 0 0 0-.3.2.17.17 0 0 1-.2.1 3 3 0 0 0-.5 0 .66.66 0 0 0-.3.1.66.66 0 0 1-.6-.3.52.52 0 0 0 .3-.5v-.8l-.1-.7.2.2a1.35 1.35 0 0 1 .1-1.1v.1l.5-.2a1.07 1.07 0 0 1 .6-.2 1.55 1.55 0 0 0 .5-.3 1 1 0 0 0 .1-.3.63.63 0 0 1 .1-.1z"/>
    <path d="M206.04 247.98a3 3 0 0 0 0-.55.5.5 0 0 0-.23-.23c-.1-.1-.3-.18-.5-.28s0-.22 0-.33-.1.1-.1.2a.25.25 0 0 1 0 .1.34.34 0 0 1-.1 0c.1-.3.1-.3-.1-.4l.4-.1a1.07 1.07 0 0 0-.2 0c-.1 0-.1-.1-.2-.2a.18.18 0 0 1 0-.2.32.32 0 0 1 .4 0 .14.14 0 0 1 .1.2l.3.3.2-.3h.1l.2-.2a4.42 4.42 0 0 0 .4.2 4.55 4.55 0 0 0 .9.5.26.26 0 0 1 .2.1.5.5 0 0 0 .3.3.88.88 0 0 1 .2.1c-.2.1-.2.1-.1.3l.3.5a1.38 1.38 0 0 0 .1.1.25.25 0 0 1 .1.1.14.14 0 0 1-.1 0l-.2-.1h-.1a.4.4 0 0 1-.4-.5.43.43 0 0 0-.2-.3.14.14 0 0 0-.1 0l-.2.1a.4.4 0 0 1-.1.2.3.3 0 0 1-.4 0 .38.38 0 0 0-.4-.3z"/>
    <path d="M201.4 246.87v-.27h-.36a.33.33 0 0 1-.1-.08c-.28.07-.3.06-.32-.25a1 1 0 0 0-.06-.18l-.14-.5h.43a.33.33 0 0 1 .23-.4.42.42 0 0 0 .25-.3.15.15 0 0 1 .08-.1.52.52 0 0 0 .4-.4 1.38 1.38 0 0 1 .2-.3 2.14 2.14 0 0 0 .2.2 1.62 1.62 0 0 0 .2.1l.2.1-.1.1h.1-.2a.47.47 0 0 0 0 .4 1.56 1.56 0 0 1 .2.4h-.3a1.18 1.18 0 0 1-.1.4.7.7 0 0 1-.2.5 1 1 0 0 1-.2.2z"/>
    <path d="M180.04 235.33l-.6.1c-.2 0-.4.12-.62.18a.6.6 0 0 1 .45-.3h-.32a.6.6 0 0 1 .06-.1.3.3 0 0 1 .1 0c-.2-.1-.2-.2 0-.2a.15.15 0 0 0 .1-.2.8.8 0 0 1 0-.2h-.2v-.3h-.1v-.2l-.1-.1.2-.2a.3.3 0 0 1 .4-.1.12.12 0 0 1 .1.1.16.16 0 0 1-.1.1l-.1.2h.1a.15.15 0 0 1 .3 0 .17.17 0 0 1 0 .2 1 1 0 0 1-.1.2l.2.2.1.2a.38.38 0 0 1 .1.4h.1a.27.27 0 0 1 .2 0 .2.2 0 0 1 0 .2c-.1.1-.1.2 0 .3z"/>
    <path d="M203.93 237.6v-.18a1.1 1.1 0 0 0-.16.08l-.35.25a.13.13 0 0 1-.12 0 .15.15 0 0 1 0-.13 2.1 2.1 0 0 1 .1-.23.23.23 0 0 1 .24-.2c.23 0 .26 0 .32-.3l.08-.4v.1a1.17 1.17 0 0 0 .18-.1.2.2 0 0 0 .07-.2 2.53 2.53 0 0 0-.1-.5.16.16 0 0 1 .1-.3.32.32 0 0 0 0-.1 3.4 3.4 0 0 1 .2.4.58.58 0 0 1 0 .2.48.48 0 0 0 0 .1c0 .2.1.4.1.7a.12.12 0 0 1 0 .1l-.4.1a.22.22 0 0 0-.1 0c0 .1-.1.2-.2.3l-.2-.2z"/>
    <path d="M209.75 257.22l.1.22.17-.1a.66.66 0 0 1-.27.45 1.67 1.67 0 0 0-.33.2.27.27 0 0 0 0 .1.3.3 0 0 1 0 .1.15.15 0 0 1-.1 0 .18.18 0 0 0-.28.1 1.4 1.4 0 0 0-.34.3.45.45 0 0 1-.5 0 .14.14 0 0 0-.08 0c-.13 0-.13-.1-.13-.2a8.3 8.3 0 0 0 1.7-1.3z"/>
    <path d="M210.56 255.47l.17.2a.15.15 0 0 1 0 .24.14.14 0 0 0 0 .3l.1-.2v.3c0 .3 0 .3.27.3.07.2.07.3-.1.3a.18.18 0 0 0-.12.1.12.12 0 0 1-.17.1.13.13 0 0 0-.1.2.18.18 0 0 1-.1.2.28.28 0 0 0-.2.2l-.1.2c-.1-.1-.1-.2 0-.3a.24.24 0 0 0 0-.3.15.15 0 0 1 0-.2l.3-.2a.26.26 0 0 0 0-.1 2 2 0 0 0 0-.8s.2 0 .2-.1z"/>
    <path d="M187.27 228.55l-.15-.1.1-.18.13-.18-.1-.2a.3.3 0 0 0 .25-.2.84.84 0 0 1 .44-.4 1 1 0 0 0 .57-.3.43.43 0 0 1 .3-.1.16.16 0 0 1 .1.1.2.2 0 0 1-.1.2 2.76 2.76 0 0 0-.3.1.38.38 0 0 0-.1.1l-.1.1a.8.8 0 0 0-.2.1.46.46 0 0 1-.3.2l.1.1c0 .1-.2.1-.1.2a.32.32 0 0 1-.1 0 1.1 1.1 0 0 1-.2 0z"/>
    <path d="M202.75 247.13v-.62a.43.43 0 0 0-.13-.1l-.1.9h-.2a.8.8 0 0 0 .1-.2.22.22 0 0 0 0-.2.16.16 0 0 1-.06-.2l.2-.7a.23.23 0 0 1 .04-.1 1.05 1.05 0 0 1 .14-.1.14.14 0 0 1 .12 0 .53.53 0 0 0 .66 0 .17.17 0 0 1 .1 0 .44.44 0 0 1-.52.3 1.1 1.1 0 0 0-.4 0 .12.12 0 0 0-.07.2c0 .1 0 .2.18.1a.5.5 0 0 0 .3-.1.18.18 0 0 1 .1.1.1.1 0 0 1 0 .1l-.2.1c0 .2.1.3.2.5a.24.24 0 0 0 .1.1c.1.1.1.2 0 .3s-.2.1-.4.1z"/>
    <path d="M181.65 227.54l-.23-.05c-.18 0-.24-.1-.18-.3s0-.1 0-.2a.35.35 0 0 1 .44.1.07.07 0 0 0 .06 0 .07.07 0 0 0 0-.1 1.1 1.1 0 0 0 0-.2.17.17 0 0 1 .24 0 .5.5 0 0 0 .28.1.17.17 0 0 1 .18.1 1.37 1.37 0 0 0 .2.1h-.32a.2.2 0 0 0-.12 0l-.32.4-.22-.1.17-.3-.18.1c.06-.1 0-.3.22-.3a.07.07 0 0 0 0-.1.25.25 0 0 0-.17 0c-.08 0-.15 0-.1.1a.14.14 0 0 1 .05 0z"/>
    <path d="M203.9 233.23l-.22-.16a1.17 1.17 0 0 0 .58 1c-.1 0-.27-.2-.3.1-.06-.14-.1-.27-.17-.4l-.3-.55a.5.5 0 0 1-.1-.43.13.13 0 0 0-.1-.2.27.27 0 0 1-.2-.3.2.2 0 0 0-.1-.2.2.2 0 0 1 0-.3c-.2-.2-.2-.2 0-.3a2 2 0 0 1 .2.2 1.33 1.33 0 0 1 .1.2.3.3 0 0 0 .1.1.92.92 0 0 1 .3.5.67.67 0 0 0 .1.2l.1.1z"/>
    <path d="M204.88 234.85l-.22.14-.18.1.13.1.1.1a.54.54 0 0 1-.2-.1.3.3 0 0 0-.3 0 .1.1 0 0 0 .1.1h.2l.2.1h-.2l-.1-.2a2.36 2.36 0 0 0-.2-.2l.2-.3v-.3a.14.14 0 0 0 0-.1c-.1-.1 0-.2 0-.3a.53.53 0 0 0 .7.2z"/>
    <path d="M199.24 224.4c-.12.1-.25.07-.45-.1a.4.4 0 0 0 0 .15c0 .23 0 .26-.2.3h-.1l.1.15a.3.3 0 0 1-.3 0l-.2-.06c-.2 0-.3-.2-.2-.35a.48.48 0 0 1 .3-.1.7.7 0 0 1 .2.1l-.2-.3h.1a1.2 1.2 0 0 0 .2 0 .23.23 0 0 1 .3.1z"/>
    <path d="M178.97 234.54h-.2l.06.26c0 .17 0 .23-.18.24a1.5 1.5 0 0 0-.15.05h-.3a.6.6 0 0 1-.14 0 .82.82 0 0 1 .07-.2c0-.1.1-.2.17-.2h-.17v-.2h.08c.2 0 .2 0 .2-.1a.26.26 0 0 1 .3-.1.67.67 0 0 1 .2.1z"/>
    <path d="M205.32 256.47a1.2 1.2 0 0 1-.06.3.94.94 0 0 1-.2.18 1.22 1.22 0 0 1 0 .2.2.2 0 0 1-.07.07v-.08l-.3.14a.72.72 0 0 1-.1-.13.62.62 0 0 1-.1-.2.14.14 0 0 1 0-.14.52.52 0 0 0 0-.3.87.87 0 0 0 0-.1 2.1 2.1 0 0 0 .4.2.67.67 0 0 1 .3 0z"/>
    <path d="M203.04 242.84l-.22-.2v.13c-.07-.1-.12-.24-.26 0l-.34-.55a.32.32 0 0 0 .08-.1.7.7 0 0 1 .05-.5h.17a.22.22 0 0 1 .1 0 1 1 0 0 1 0 .45.37.37 0 0 0 0 .36.25.25 0 0 0 .2.1.27.27 0 0 1 .3.27z"/>
    <path d="M182.4 227.06l.2-.1-.27.08c-.1 0-.17.1-.18-.07a.34.34 0 0 0-.1-.1h.17l.13-.23a.26.26 0 0 0 .35.22l-.1-.12c.2 0 .37 0 .54.1a.1.1 0 0 1 0 .2.4.4 0 0 1-.18.1 3.67 3.67 0 0 1-.46 0z"/>
    <path d="M203.2 244.07l-.34.12.2-.3a.35.35 0 0 0 .4-.3.25.25 0 0 1 .2.3.78.78 0 0 0 0 .2l-.2.1.1.2a.7.7 0 0 1-.26 0 .33.33 0 0 1-.08-.2 1.3 1.3 0 0 1 0-.3z"/>
    <path d="M187.7 229.4h-.42l.07-.18h-.3a.18.18 0 0 1 0-.27.37.37 0 0 0 .06-.2.13.13 0 0 1 .2-.15h.3a.54.54 0 0 0 .2.74z"/>
    <path d="M192.4 225.23a.83.83 0 0 1-.5 0c0 .07-.08.17-.2.06a.24.24 0 0 0-.1 0l.2-.2c0-.2.14-.2.47-.2l-.07-.2a.43.43 0 0 1 .2 0 .42.42 0 0 1 .06.2 1.05 1.05 0 0 1-.06.1z"/>
    <path d="M203.5 238.5c-.16 0-.26-.04-.25-.2a.22.22 0 0 0-.24-.27.15.15 0 0 1 .2-.2.27.27 0 0 1 .3.22v.46z"/>
    <path d="M192.8 224.97a.22.22 0 0 1 .12 0c.08.1.27 0 .27.2a.17.17 0 0 1-.2.1.26.26 0 0 0-.3.24c0-.1 0-.2-.1-.3s0-.1-.1-.1v-.1z"/>
    <path d="M200.16 224.1a.64.64 0 0 1-.64.26.2.2 0 0 1-.18-.23l.14.05a.2.2 0 0 1 .07-.06.46.46 0 0 0 .35-.07.55.55 0 0 1 .26.05z"/>
    <path d="M202.04 240.75a4 4 0 0 1-.18-.4c-.08-.2-.07-.2.14-.33a.58.58 0 0 1 .04.73z"/>
    <path d="M191.33 225.04c0-.1 0-.16.13-.15a.13.13 0 0 0 .15-.1.38.38 0 0 1 .3-.1.5.5 0 0 1 .2 0 1 1 0 0 1-.7.2z"/>
    <path d="M199.5 225.22l-.57.12c.1-.38.25-.4.58-.12z"/>
    <path d="M208.52 247.1c0 .22 0 .3-.2.35a.25.25 0 0 1-.35-.08c.13-.1.35.06.42-.17l-.2-.17z"/>
    <path d="M203.94 245.6l.3.16-.2.12v.17l-.25-.35.1-.3z"/>
    <path d="M202.72 243.1l.2.05v.13a.44.44 0 0 1 .1.47.1.1 0 0 1-.08 0 .27.27 0 0 1 0-.13 1.54 1.54 0 0 1 .07-.24h-.1z"/>
    <path d="M182.95 227.66l-.44.1a.56.56 0 0 1 .2-.2.32.32 0 0 1 .4.08v.06z"/>
    <path d="M203.93 237.6a.3.3 0 0 1-.22.26.27.27 0 0 0 0 .12c-.1-.1-.1-.2 0-.28a1.85 1.85 0 0 1 .3-.1z"/>
    <path d="M186.1 226.08l.12.16c-.25 0 0 .22-.1.27h-.28z"/>
    <path d="M203.93 246.54a.34.34 0 0 1 .1-.1.4.4 0 0 1 .54.27.6.6 0 0 0-.6-.1z"/>
    <path d="M187.75 225.68a.15.15 0 0 1 .16.16.34.34 0 0 1-.1.15.1.1 0 0 1-.1 0 .14.14 0 0 1 0-.2 1.54 1.54 0 0 1 .1-.2z"/>
    <path d="M187.22 226.17a.26.26 0 0 1 0-.14.28.28 0 0 1 .34-.07c0 .23-.2.13-.3.22z"/>
    <path d="M201.87 243.85l.27-.3a.2.2 0 0 0 .1-.25.38.38 0 0 1 0-.15c.1.3.1.3-.1.47a2.94 2.94 0 0 0-.25.26z"/>
    <path d="M186.57 226.07c.13-.17.13-.17.08-.24h.33l-.26.18.2.1h-.34z"/>
    <path d="M203.5 243.25c-.16 0-.2 0-.23-.1a.8.8 0 0 0-.1-.18.34.34 0 0 1 .32.28z"/>
    <path d="M188.04 229.3l.37.22c-.3.08-.4.08-.3-.22z"/>
    <path d="M197.72 226.23a1 1 0 0 1-.22.1.27.27 0 0 1-.12-.08.32.32 0 0 1 .1-.07 1.2 1.2 0 0 1 .23 0v.06z"/>
    <path d="M186.53 230.14c0-.13 0-.2.14-.2s.16 0 .16.1z"/>
    <path d="M185.95 226.2l-.2.26c-.1-.12 0-.23.2-.27z"/>
    <path d="M183.56 227.2l-.26.1v-.06l.25-.12z"/>
    <path d="M187.04 226.28h-.08l-.06-.07h.2z"/>
    <path d="M198.8 225.17v-.22c.14.1.14.1 0 .22h-.06z"/>
    <path d="M195.23 226.25l-.2.1a.3.3 0 0 1 .06-.1.74.74 0 0 1 .1 0v.08z"/>
    <text fill="#231f20" transform="translate(98.69 59.71)" font-size="7.5" font-family="Roboto Slab">
      Both a<tspan x="22.72" y="0">r</tspan><tspan x="25.75" y="0">e equally li</tspan><tspan x="64.26" y="0">k</tspan><tspan x="68.75" y="0">ely </tspan><tspan x="81.26" y="0">t</tspan><tspan x="83.94" y="0">o h</tspan><tspan x="94.85" y="0">a</tspan><tspan x="98.92" y="0">v</tspan><tspan x="103.06" y="0">e a four </tspan><tspan x="131.35" y="0">y</tspan><tspan x="135.56" y="0">ear c</tspan><tspan x="152.73" y="0">o</tspan><tspan x="156.86" y="0">llege deg</tspan><tspan x="188.54" y="0">r</tspan><tspan x="191.57" y="0">ee</tspan><tspan x="34.79" y="9">60% a</tspan><tspan x="54.59" y="9">r</tspan><tspan x="57.63" y="9">e married or in a </tspan><tspan x="118.13" y="9">l</tspan><tspan x="120.42" y="9">o</tspan><tspan x="124.63" y="9">n</tspan><tspan x="129.42" y="9">g term </tspan><tspan x="154.35" y="9">r</tspan><tspan x="157.39" y="9">elationship.</tspan>
    </text>
    <path fill="none" stroke="#231f20" stroke-miterlimit="10" d="M114.1 105.6H45.6v167.88"/>
    <path fill="none" stroke="#231f20" stroke-miterlimit="10" d="M271.86 105.6h-102.6v167.88"/>
    <rect width="214.19" height="24" x="85.08" y="24.27" fill="#231f20" rx="10.09" ry="10.09"/>
    <text fill="#fff" transform="translate(95.13 41.86)" font-size="14" font-family="Roboto Slab">
      CORE DEMOGRAPHICS
    </text>
  </g>
</svg>
