<svg xmlns="http://www.w3.org/2000/svg" id="Layer_1" data-name="Layer 1" viewBox="0 0 612 792">
  <path fill="#231f20" d="M397.72 331.7V363H200.47v-30.5l2.35.17 1.9.15c3.5.27 7 .53 10.45.74 4.6.28 9.22.5 13.83.65q8.67.3 17.35.3c5.78 0 11.57 0 17.35-.1 6.2-.1 12.42-.3 18.63-.4 4.66-.1 9.32-.2 14 0a15.94 15.94 0 0 0 2.3 0c3.1-.3 6.23-.4 9.36-.4h12.8c2.5 0 5-.1 7.5-.1 2 0 3.9.2 5.8.1 2.6 0 5.3-.2 8-.3 4-.2 8.1-.5 12.1-.7 2.8-.1 5.5-.4 8.3-.5 3.4-.2 6.8-.2 10.2-.3 5.9-.2 11.8 0 17.7.1 2.3 0 4.7.1 7 .2z"/>
  <path d="M397.72 330.7v1c-2.36-.06-4.73-.15-7.1-.2-5.9-.12-11.8-.25-17.7-.08-3.4.1-6.83.15-10.25.3-2.8.13-5.57.38-8.35.56-4 .27-8.1.54-12.13.77-2.7.16-5.3.32-8 .37-2 .05-4-.1-5.9-.1-2.5 0-5 .07-7.6.1q-6.4 0-12.9.05c-3.2 0-6.3.18-9.4.46a15.94 15.94 0 0 1-2.3 0c-4.7-.27-9.3-.12-14 0-6.2.13-12.4.33-18.6.43-5.8.1-11.6.16-17.4.14s-11.6-.12-17.4-.3c-4.6-.13-9.2-.36-13.8-.64-3.5-.2-7-.47-10.5-.74l-1.9-.15v-1l1.9.14c3 .3 6.1.5 9.2.7s6.4.4 9.6.5c4.1.2 8.3.4 12.5.4 8.8.2 17.7.2 26.6 0 5.9-.1 11.7-.3 17.6-.4 4.5-.1 9-.1 13.6-.1 2.5 0 5 .1 7.5-.1 3.1-.2 6.3-.2 9.5-.3h10.6c2.8 0 5.6 0 8.5-.1 2.1 0 4.2.1 6.4 0 3.5-.1 7.1-.3 10.6-.6l7.4-.5c3.1-.2 6.3-.5 9.5-.6l12.4-.3c7-.1 13.9.1 20.9.4h.4z"/>
  <text fill="#010101" transform="translate(187.66 421.02)" font-size="10" font-family="Roboto Slab">
    DOG PEOPLE
  </text>
  <text fill="#010101" transform="translate(311.16 421.02)" font-size="10" font-family="Roboto Slab">
    C<tspan x="6.45" y="0">A</tspan><tspan x="12.9" y="0">T PEOPLE</tspan>
  </text>
  <path fill="#fff200" d="M332.8 446v12.67A12.67 12.67 0 0 1 320.12 446h12.66z"/>
  <path fill="#231f20" d="M345.46 446a12.67 12.67 0 0 1-12.67 12.67V446h-12.7a12.67 12.67 0 0 1 25.3 0z"/>
  <text fill="#010101" transform="translate(354.13 436.11)" font-size="7" font-family="Roboto Slab">
    15% <tspan x="13.31" y="0">m</tspan><tspan x="19.89" y="0">o</tspan><tspan x="23.82" y="0">r</tspan><tspan x="26.65" y="0">e li</tspan><tspan x="36.65" y="0">k</tspan><tspan x="40.84" y="0">ely </tspan><tspan x="52.52" y="0">t</tspan><tspan x="55.02" y="0">o </tspan><tspan x="0" y="8.4">consider Geo</tspan><tspan x="43.1" y="8.4">r</tspan><tspan x="45.93" y="8.4">ge </tspan><tspan x="0" y="16.8">Harrison t</tspan><tspan x="33.63" y="16.8">h</tspan><tspan x="38.11" y="16.8">eir </tspan><tspan x="0" y="25.2">f</tspan><tspan x="2.49" y="25.2">av</tspan><tspan x="10.15" y="25.2">ourite Beatle</tspan>
  </text>
  <path fill="#231f20" d="M221 446a12.67 12.67 0 0 1-12.67 12.67V446l-11.06 6.16A12.66 12.66 0 1 1 221 446z"/>
  <path fill="#fff200" d="M208.35 446v12.67a12.65 12.65 0 0 1-11.06-6.5z"/>
  <text fill="#010101" transform="translate(229.69 436.11)" font-size="7" font-family="Roboto Slab">
    18% <tspan x="13.48" y="0">m</tspan><tspan x="20.06" y="0">o</tspan><tspan x="23.99" y="0">r</tspan><tspan x="26.82" y="0">e li</tspan><tspan x="36.83" y="0">k</tspan><tspan x="41.01" y="0">ely </tspan><tspan x="52.69" y="0">t</tspan><tspan x="55.19" y="0">o </tspan><tspan x="0" y="8.4">consider </tspan><tspan x="30.67" y="8.4">P</tspan><tspan x="35.08" y="8.4">aul </tspan><tspan x="0" y="16.8">McCa</tspan><tspan x="18.66" y="16.8">r</tspan><tspan x="21.66" y="16.8">t</tspan><tspan x="24.22" y="16.8">n</tspan><tspan x="28.69" y="16.8">e</tspan><tspan x="32.41" y="16.8">y </tspan><tspan x="38.12" y="16.8">t</tspan><tspan x="40.62" y="16.8">o be </tspan><tspan x="0" y="25.2">t</tspan><tspan x="2.56" y="25.2">h</tspan><tspan x="7.05" y="25.2">eir f</tspan><tspan x="20.23" y="25.2">av</tspan><tspan x="27.89" y="25.2">ourite</tspan><tspan x="0" y="33.6">Beatle</tspan>
  </text>
  <text fill="#010101" transform="translate(196.69 505.59)" font-size="6" font-family="Roboto Slab">
    Think of t<tspan x="27.79" y="0">h</tspan><tspan x="31.64" y="0">emsel</tspan><tspan x="48.71" y="0">v</tspan><tspan x="52.02" y="0">es as </tspan><tspan x="0" y="7.2">fashion-conscious </tspan><tspan x="0" y="14.4">(so</tspan><tspan x="8.36" y="14.4">m</tspan><tspan x="14" y="14.4">ew</tspan><tspan x="22.19" y="14.4">h</tspan><tspan x="26.03" y="14.4">e</tspan><tspan x="29.26" y="14.4">r</tspan><tspan x="31.68" y="14.4">e between fashion-</tspan><tspan x="0" y="21.6">challe</tspan><tspan x="17.42" y="21.6">n</tspan><tspan x="21.25" y="21.6">ged a</tspan><tspan x="36.27" y="21.6">n</tspan><tspan x="40.1" y="21.6">d fashion-</tspan><tspan x="69.09" y="21.6">b</tspan><tspan x="72.54" y="21.6">lessed)</tspan>
  </text>
  <path fill="#231f20" d="M345.08 481.07a12.67 12.67 0 0 1-12.67 12.67v-12.67l-11 6.16a12.66 12.66 0 1 1 23.8-6.16z"/>
  <path fill="#fff200" d="M332.4 481.07v12.67a12.65 12.65 0 0 1-11.05-6.5z"/>
  <text fill="#010101" transform="translate(353.75 475.17)" font-size="7" font-family="Roboto Slab">
    11% <tspan x="12.5" y="0">m</tspan><tspan x="19.08" y="0">o</tspan><tspan x="23.01" y="0">r</tspan><tspan x="25.84" y="0">e li</tspan><tspan x="35.84" y="0">k</tspan><tspan x="40.03" y="0">ely </tspan><tspan x="51.71" y="0">t</tspan><tspan x="54.21" y="0">o </tspan><tspan x="0" y="8.4">identify as fashion-</tspan><tspan x="0" y="16.8">challe</tspan><tspan x="20.32" y="16.8">n</tspan><tspan x="24.79" y="16.8">ged</tspan>
  </text>
  <text fill="#010101" transform="translate(354.13 509.96)" font-size="7" font-family="Roboto Slab">
    21% <tspan x="13.48" y="0">m</tspan><tspan x="20.06" y="0">o</tspan><tspan x="23.99" y="0">r</tspan><tspan x="26.82" y="0">e li</tspan><tspan x="36.83" y="0">k</tspan><tspan x="41.01" y="0">ely </tspan><tspan x="52.69" y="0">t</tspan><tspan x="55.19" y="0">o </tspan><tspan x="0" y="8.4">enj</tspan><tspan x="10.22" y="8.4">o</tspan><tspan x="14.1" y="8.4">y i</tspan><tspan x="22.11" y="8.4">r</tspan><tspan x="24.93" y="8.4">onic hu</tspan><tspan x="49.95" y="8.4">m</tspan><tspan x="56.53" y="8.4">or</tspan><tspan x="0" y="16.8">a</tspan><tspan x="3.86" y="16.8">n</tspan><tspan x="8.33" y="16.8">d puns</tspan>
  </text>
  <path fill="#231f20" d="M345.46 516a12.67 12.67 0 0 1-12.67 12.67V516l-12.5 2.46a12.44 12.44 0 0 1-.3-2.46 12.7 12.7 0 0 1 .4-3.17v-.06l.1-.52a12.66 12.66 0 0 1 24.8 3.75z"/>
  <path fill="#fff200" d="M332.8 516v12.67a12.67 12.67 0 0 1-12.43-10.2z"/>
  <text fill="#fff" transform="translate(225.34 353.04)" font-size="14" font-family="Roboto Slab">
    <tspan letter-spacing="-2">F</tspan><tspan x="6.66" y="0">ASHION/ASTH</tspan><tspan x="105.2" y="0">E</tspan><tspan x="114.26" y="0">TICS</tspan>
  </text>
  <path fill="#231f20" d="M204.72 331.84v1l-1.9-.15-2.35-.2v-1l1.17.1 1.18.1z"/>
  <text fill="#231f20" transform="translate(192.8 382.24)" font-size="7.5" font-family="Roboto Slab">
    Both a<tspan x="22.72" y="0">r</tspan><tspan x="25.75" y="0">e slightly </tspan><tspan x="60.61" y="0">m</tspan><tspan x="67.66" y="0">o</tspan><tspan x="71.87" y="0">r</tspan><tspan x="74.9" y="0">e li</tspan><tspan x="85.62" y="0">k</tspan><tspan x="90.11" y="0">ely </tspan><tspan x="102.62" y="0">t</tspan><tspan x="105.29" y="0">o think musical t</tspan><tspan x="165.74" y="0">h</tspan><tspan x="170.55" y="0">eat</tspan><tspan x="181.46" y="0">r</tspan><tspan x="184.49" y="0">e is aweso</tspan><tspan x="220.93" y="0">m</tspan><tspan x="227.98" y="0">e,</tspan><tspan x="0" y="9">a</tspan><tspan x="4.13" y="9">n</tspan><tspan x="8.92" y="9">d also do</tspan><tspan x="40.38" y="9">n</tspan><tspan x="45.15" y="9">’t li</tspan><tspan x="56.12" y="9">k</tspan><tspan x="60.6" y="9">e animal print c</tspan><tspan x="116.95" y="9">l</tspan><tspan x="119.24" y="9">othi</tspan><tspan x="133.5" y="9">n</tspan><tspan x="138.29" y="9">g.</tspan>
  </text>
  <path fill="none" stroke="#231f20" stroke-miterlimit="10" d="M238.17 423.57H186.2V561.9m176.22-138.33h-51.97V561.9"/>
  <path id="_432dLW.tif" d="M402.07 322.54a14.5 14.5 0 0 0-6.1-6.92 90.1 90.1 0 0 0-9.86-4.87c-5.6-2.48-11.2-4.88-16.9-7.32-5.4-2.36-10.9-4.68-16.3-7.1-7.6-3.37-15.1-7-22.6-10.67-4.1-2.05-8.2-4.07-12.2-6.5a15.46 15.46 0 0 0-4.4-1.84c-1.6-.4-3.3-.9-5-1.33a7 7 0 0 1-5.2-5.2 12.74 12.74 0 0 1-.4-3.2c-.1-2.9.2-2.4-1.2-5a.9.9 0 0 1 0-1 1.86 1.86 0 0 0 0-2 .64.64 0 0 1 0-.7 2.27 2.27 0 0 0-.1-2.4.8.8 0 0 1 0-.8 2.4 2.4 0 0 0-.1-2.4.9.9 0 0 1 0-1 2.25 2.25 0 0 0 0-2 2.43 2.43 0 0 1-.1-1.2c.1-1 .3-2 .5-3.1.1-.6.2-1.3.2-1.9l-1.1-.2-.1-1c-.1-1.2-.2-2.5-.4-3.7a10.56 10.56 0 0 0-2.9-6 18.42 18.42 0 0 0-1.8-1.5 5.38 5.38 0 0 0-.7-.5 11.13 11.13 0 0 0-7-1.5 10.85 10.85 0 0 0-9.5 9c-.5 3.3-.8 6.6-1.1 10a2 2 0 0 0 0 .4l.8.1c0-.3.1-.5.1-.8l.9-8.7a10.07 10.07 0 0 1 2.8-6.1 9.68 9.68 0 0 1 9-3 9.9 9.9 0 0 1 8 6.8 17.55 17.55 0 0 1 .7 4.33c.2 2.3.4 4.62.5 6.93a2.2 2.2 0 0 1-.2 1 2.47 2.47 0 0 0 0 2.33.93.93 0 0 1 0 .8 2.82 2.82 0 0 0 .2 2.3.92.92 0 0 1 0 .9 2.55 2.55 0 0 0 .1 2.33.75.75 0 0 1 0 .7 2.14 2.14 0 0 0 .1 2 .9.9 0 0 1 0 .9c-.26.5-.5 1-.74 1.5a5.3 5.3 0 0 0-.57 2.4 23.16 23.16 0 0 1-.1 2.34 6.36 6.36 0 0 1-4.1 5.6 10.46 10.46 0 0 1-3.7.5c-1.77 0-3.5.1-5.3.1a5.65 5.65 0 0 0-3 .9c-3.16 1.9-6.28 3.83-9.46 5.7-7.1 4.04-14.3 7.9-21.6 11.5q-7.85 3.95-15.8 7.7c-5.6 2.75-11.3 5.4-17 8.1-4.3 2.1-8.7 4.3-12.9 6.7a37.33 37.33 0 0 0-5.4 3.6 14.4 14.4 0 0 0-4.6 6.3 5.86 5.86 0 0 0 .5 4.93 3.08 3.08 0 0 0 2 1.57 16.1 16.1 0 0 0 2.1.36l2.34.2 1.9.16c3.5.3 7 .53 10.5.74 4.6.2 9.2.5 13.8.6q8.7.2 17.36.3c5.8 0 11.6 0 17.4-.2 6.2-.1 12.4-.3 18.62-.4 4.65-.1 9.3-.24 14 0a15.94 15.94 0 0 0 2.3 0c3.1-.3 6.2-.44 9.35-.45q6.43 0 12.84-.05c2.5 0 5-.1 7.6-.1 2 0 4 .17 5.9.1 2.7-.03 5.3-.2 8-.35 4-.2 8.1-.5 12.2-.72 2.8-.2 5.55-.42 8.34-.54 3.4-.2 6.84-.23 10.26-.3 5.9-.2 11.8 0 17.7.06 2.4.04 4.77.13 7.1.2h.2a4.28 4.28 0 0 0 4.3-3 8.23 8.23 0 0 0 0-6zm-.5 5.26a4.72 4.72 0 0 1-1.06 1.94 2.8 2.8 0 0 1-1.8.93h-1.3c-7-.24-13.9-.43-20.8-.35-4.1.05-8.3.13-12.4.3-3.2.13-6.3.4-9.5.62l-7.3.48c-3.5.2-7.1.45-10.6.6-2.1.07-4.2 0-6.4 0-2.8 0-5.6.07-8.5.1H311c-3.2 0-6.4.06-9.6.3-2.5.17-5 .1-7.47.08-4.5 0-9.04.05-13.56.13-5.9.12-11.8.3-17.67.42-8.87.2-17.74.17-26.6 0-4.17-.07-8.33-.24-12.5-.4q-4.78-.2-9.56-.52c-3.1-.2-6.15-.42-9.23-.65l-1.9-.14-1.1-.1-1.2-.1-1.1-.14a2.88 2.88 0 0 1-2.6-2.45 5.52 5.52 0 0 1 .4-3.8 14.5 14.5 0 0 1 4-5.08 29.22 29.22 0 0 1 4-2.7c4.5-2.68 9.2-5 13.9-7.3 5.2-2.5 10.5-5 15.7-7.44 5-2.43 10.1-4.84 15.1-7.34 4.7-2.4 9.4-4.9 14-7.3 5.8-3 11.4-6.3 17-9.7l2.5-1.5a4.18 4.18 0 0 1 2.2-.6c2.3 0 4.6-.1 6.9-.2a7.1 7.1 0 0 0 3.2-.7 7.43 7.43 0 0 0 4.2-5.8 26.68 26.68 0 0 0 .3-3.2 5.8 5.8 0 0 1 1-2.8.4.4 0 0 1 .2-.1 5.44 5.44 0 0 1 1 2.7c0 1.1 0 2.2.2 3.3a8.33 8.33 0 0 0 2.9 5.7 8.18 8.18 0 0 0 3.2 1.5c2.1.6 4.2 1.1 6.3 1.7a8 8 0 0 1 1.9.8c3.2 1.8 6.4 3.6 9.7 5.2q10 5 20.26 9.7 5.6 2.6 11.2 5c6.6 2.9 13.2 5.7 19.8 8.5 5.4 2.3 10.8 4.6 16 7.3a17.28 17.28 0 0 1 5.1 3.5 13 13 0 0 1 3.18 5 7 7 0 0 1 0 4.1z" data-name="432dLW.tif"/>
</svg>
