<svg xmlns="http://www.w3.org/2000/svg" data-name="Layer 1" viewBox="0 0 612 792">
  <path fill="#fff" stroke="#231f20" stroke-width="2" d="M27.58 316.92h558.2" stroke-linecap="round" stroke-linejoin="round"/>
  <text fill="#231f20" transform="translate(27.58 269.69)" font-size="16.46" font-family="Roboto Slab">
    WH<tspan x="27.99" y="0" letter-spacing="-1">A</tspan><tspan x="38.59" y="0">T OUR FUR</tspan><tspan x="125.96" y="0">R</tspan><tspan x="136.3" y="0">Y </tspan><tspan x="151.76" y="0" letter-spacing="-2">P</tspan><tspan x="160.16" y="0">ALS REVEAL ABOUT US</tspan>
  </text>
  <text fill="#fff" transform="translate(28.99 312.48)" font-size="14" font-family="Roboto Slab">
    A LI<tspan x="26.46" y="0">T</tspan><tspan x="35.34" y="0">TLE INTRODU</tspan><tspan x="128.28" y="0">C</tspan><tspan x="137.11" y="0">TION</tspan>
  </text>
  <path fill="#fff" stroke="#231f20" stroke-width="2" d="M29.23 434.23H587.6" stroke-linecap="round" stroke-linejoin="round"/>
  <path fill="none" stroke="#fff" stroke-width="1.16" stroke-miterlimit="10" d="M61.98 482.8h188.4"/>
  <path fill="none" stroke="#fff" stroke-width="1.2" stroke-miterlimit="10" d="M61.98 496.48h238.57"/>
  <path fill="none" stroke="#fff" stroke-width="1.16" stroke-miterlimit="10" d="M61.98 602.56h399.74"/>
  <path fill="none" stroke="#fff" stroke-width="1.17" stroke-miterlimit="10" d="M61.98 607.7h455.9"/>
  <path fill="none" stroke="#231f20" stroke-width="2" d="M52.68 458.48h8.2v171.1h-6.83" stroke-linecap="round" stroke-linejoin="round"/>
  <text fill="#fff" transform="translate(29.94 429.8)" font-size="14" font-family="Roboto Slab">
    P<tspan x="8.89" y="0">E</tspan><tspan x="17.96" y="0">T</tspan><tspan x="26.63" y="0">S OWNED IN THE U.S. (millions)</tspan>
  </text>
  <path fill="none" stroke="#231f20" stroke-width="2" d="M52.68 544.03h8.2" stroke-linecap="round" stroke-linejoin="round"/>
  <text fill="#010101" transform="matrix(1.37 0 0 1 28.02 461.52)" font-size="9" font-family="Roboto Slab" font-weight="700">
    100
  </text>
  <text fill="#010101" transform="matrix(1.37 0 0 1 33.92 547.02)" font-size="9" font-family="Roboto Slab" font-weight="700">
    50
  </text>
  <text fill="#010101" transform="matrix(1.37 0 0 1 40.48 632.43)" font-size="9" font-family="Roboto Slab" font-weight="700">
    0
  </text>
  <path d="M124.26 629.72l1.6-.7c1.18-.5 2.33-1.07 3.53-1.46a16.4 16.4 0 0 1 3.5-.76 31.18 31.18 0 0 1 7 .12 18.24 18.24 0 0 0 2.8.08 54.57 54.57 0 0 0 5.4-.17 16.1 16.1 0 0 0 7.8-3 20.38 20.38 0 0 1 2.3-1.4 35.9 35.9 0 0 0 4-3 15.48 15.48 0 0 1 3.3-2 4.7 4.7 0 0 1 5.3 1.13 41.65 41.65 0 0 0 4.8 3.7 4.64 4.64 0 0 0 2.6.55c1.6.1 3.2.2 4.9.2a5.92 5.92 0 0 0 1.1-.1 3.27 3.27 0 0 1 3.5 1.6 2.58 2.58 0 0 0 2.2 1.3c1.5.1 3 .3 4.5.4 1.9.1 3.8.2 5.7.2.9 0 1.8-.1 2.7-.2h4.4c1 0 2.1-.1 3.2-.1h4.5c1.1 0 2.2-.1 3.3-.1.8 0 1.6.1 2.4.1.1 0 .2.1.3.1 1.6 0 3.2.2 4.8.2 2 0 2.1-.5 2.5-2.4s-1.2-3.9-2.8-4.5c-1.2-.4-2.5-1-3.8-1.3a6.33 6.33 0 0 0-2.1.2c-1 .1-1.9.4-2.9.4H209a10.76 10.76 0 0 1-2.1 0 13.8 13.8 0 0 1-3.4-1 2.78 2.78 0 0 1-1.4-2.7 17.53 17.53 0 0 1 1-5 9.7 9.7 0 0 0 .2-6 2.72 2.72 0 0 1 .6-2.7 19.52 19.52 0 0 0 3.7-7.1c.34-1.2.7-2.4 1-3.6a13.53 13.53 0 0 0 .3-2.6V580c0-1.36-.2-2.7-.3-4v-3c.1-1.35.23-2.67.2-4-.06-1.74 1.1-2.5 2.3-3.2.6-.4 1.25-.6 1.9-.94a13.88 13.88 0 0 1 5-1.12c1.75-.17 3.53-.33 5.3-.42a20.84 20.84 0 0 1 2.87.1 40.1 40.1 0 0 1 4.5.5 9.16 9.16 0 0 1 4.8 2.1 16.53 16.53 0 0 0 2.6 1.9 3.44 3.44 0 0 0 3.5.27.6.6 0 0 0 .3-.3 1 1 0 0 1 1.3-.6 9.9 9.9 0 0 0 1.6.1c1.6-.1 2.2-1.2 2.52-2.5.1-.4 0-.9.1-1.3l.3-1.3a2 2 0 0 0-.3-2c-.3-.4-.7-.6-1-.9a1.5 1.5 0 0 1-.6-.9 1.65 1.65 0 0 0-1-1.7 5.1 5.1 0 0 0-2.5-1 10.4 10.4 0 0 1-3.9-1.2 3.8 3.8 0 0 0-1.8-.5 17.75 17.75 0 0 1-6.6-1.1 16.57 16.57 0 0 0-5.4-1c-1.6-.1-3.2-.2-4.8-.2H217a3.73 3.73 0 0 1-2.9-1.4 2 2 0 0 1-.37-1.1 40.18 40.18 0 0 1 .15-4.4 21.16 21.16 0 0 0-.26-4.8 29.6 29.6 0 0 1 .7-9.7 23.83 23.83 0 0 1 1.1-3 8.22 8.22 0 0 1 .5-1.4 16.47 16.47 0 0 1 1.7-2.5c1-1.2 2.2-2.1 3.1-3.3 1.2-1.5 2.7-2.8 3.7-4.6a8.35 8.35 0 0 1 1.2-1.7c1.2-1.4 2.4-2.7 3.6-4 .85-1 1.6-2.1 2.45-3.1l2.4-3c1.1-1.5 2.13-2.9 3.3-4.3a9.3 9.3 0 0 0 1.6-2.5 2.07 2.07 0 0 1 .8-1c1.12-.7 2.3-1.4 3.5-2a6.78 6.78 0 0 0 3.6-3.3 14.8 14.8 0 0 1 3.53-5.2 2.05 2.05 0 0 0 1-2 2.08 2.08 0 0 0-2-1.5 7.35 7.35 0 0 0-5.4 1.4c-.8.7-1.5 1.4-2.3 2.1a26.34 26.34 0 0 1-2.86 2c-1.9 1.1-3.87 2.1-5.7 3.2s-4 2.5-5.9 3.8a19.8 19.8 0 0 0-2 1.8l-3.8 3.4-5.6 5.1c-1.64 1.4-3.26 3-4.94 4.4a13.2 13.2 0 0 1-2.6 1.7c-1.4.7-2.8.3-4.2.3a.72.72 0 0 1-.38-.6 13 13 0 0 1 1.1-4.3 12.3 12.3 0 0 0 .86-2.4 4.6 4.6 0 0 0-.9-3.5 6.4 6.4 0 0 1-.9-2.2 2.77 2.77 0 0 0-2.06-2 9.13 9.13 0 0 0-4.5-.1 3.43 3.43 0 0 1-1.7-.26 8.17 8.17 0 0 1-1.8-.9 7.05 7.05 0 0 0-3-1.1 1.3 1.3 0 0 1-.7-.3c-.8-.8-1.5-1.7-2.3-2.5a1 1 0 0 0-.7-.4.82.82 0 0 0-.4.6c-.1 1-.2 2-.2 3a.73.73 0 0 1-.47.8c-.9.4-1.8.8-2.64 1.22a13.5 13.5 0 0 0-1.6 1 3.3 3.3 0 0 1-4-.2c-1.4-1.1-2.7-2.2-4.1-3.2a29.2 29.2 0 0 0-3.4-2.1 3.9 3.9 0 0 0-1.7-.3.9.9 0 0 0-.9.9 16.42 16.42 0 0 0 1 7.4c.3.8.9 1.6 1.2 2.4a10.82 10.82 0 0 1 .7 2.9 15.47 15.47 0 0 0 1 4.8 27.28 27.28 0 0 0 1.9 3.7c.6 1 1.4 1.9 2 2.9a12.32 12.32 0 0 1 2 6.46 14.78 14.78 0 0 0 1 4.9c1 2.7 2 5.4 2.8 8.2a6.63 6.63 0 0 1-.1 3.8 22 22 0 0 1-2.9 6.5c-2.5 3.6-4.2 7.7-6.1 11.7l-.5 1a31 31 0 0 0-2 5.4c-1 3-2 6-2.9 9.1-.7 2.4-1.4 4.8-1.9 7.2s-.7 4.8-1.1 7.2c-.2 1.1-.5 2.2-.7 3.3-.3 1.5-.7 2.9-.9 4.4a30 30 0 0 0-.5 3.9 18.9 18.9 0 0 1-3.5 10.5 17.52 17.52 0 0 1-4.5 4.7 29.25 29.25 0 0 1-4.5 2.4 19.66 19.66 0 0 1-3.5.8 14 14 0 0 1-2.1.3c-1.5.1-3 .1-4.4.1s-3.2-.2-4.8-.28a14.8 14.8 0 0 0-5.5.6 27.22 27.22 0 0 0-4.8 1.8 10.88 10.88 0 0 0-3.5 3.2 3.4 3.4 0 0 0 1 4.9 6.9 6.9 0 0 0 1 .4h.8z"/>
  <path d="M302.6 586.3a24.6 24.6 0 0 0 .22 2.47c.5 2.77 1 5.54 1.63 8.28.45 2 1.06 4 1.6 5.95a11.54 11.54 0 0 1-.12 7 51.33 51.33 0 0 0-2.18 9.36 9.87 9.87 0 0 1-.57 2 2.76 2.76 0 0 1-2.16 1.87 59.24 59.24 0 0 1-7.67 1.27 14.63 14.63 0 0 1-3.82-.34c-1.05-.22-2.1-.4-3.18-.53a1.92 1.92 0 0 1-1.85-2.36 6.42 6.42 0 0 1 5-5.32 6.94 6.94 0 0 1 1.5 0 5.84 5.84 0 0 0 3.75-1.4 2.33 2.33 0 0 0 .83-1.56c.1-.9.26-1.8.45-2.7a2.86 2.86 0 0 0-.15-1.8 7.92 7.92 0 0 1-.67-3.3 18.7 18.7 0 0 0-1.1-5.2l-1.2-4a2 2 0 0 1-.1-.8 4.45 4.45 0 0 0-.3-2 89.16 89.16 0 0 1-4.6-17.1 64 64 0 0 0-3.7-13.3 33.85 33.85 0 0 1-1.4-4.8 11.15 11.15 0 0 1 .8-6.9c1-2.5 1.9-4.9 2.9-7.4a.73.73 0 0 0 0-.5 4.6 4.6 0 0 0-.4-.7 6.78 6.78 0 0 1-1.2-5.5 2.76 2.76 0 0 1 1-1.7 1.76 1.76 0 0 0 .7-1.5 8.93 8.93 0 0 0 0-1.3 6.85 6.85 0 0 1 .4-3.3 5 5 0 0 0-.2-3.9l-.4-1a6.73 6.73 0 0 1-.9-3.2 1.57 1.57 0 0 0-1.4.4c-.4.3-.7.7-1.1 1.1a7.5 7.5 0 0 1-1.1 1 1.32 1.32 0 0 1-2-.7 1.58 1.58 0 0 0-1.3-1.3 6 6 0 0 1-1.8-1 8.07 8.07 0 0 0-2.8-1.6.43.43 0 0 1-.2-.2 8.77 8.77 0 0 1-1.1-6.7 6.7 6.7 0 0 1 .6-1.4 1.77 1.77 0 0 0-.2-2.2 4.7 4.7 0 0 1-1.1-3.2 1.22 1.22 0 0 1 .8-1.4 24.23 24.23 0 0 1 2.8-.7c1.2-.2 2.4-.3 3.6-.5a1.12 1.12 0 0 0 1-1.1l.3-1.4a2.93 2.93 0 0 1 1.9-2.5c1.5-.6 3-1.1 4.5-1.5a33.14 33.14 0 0 1 3.6-.9 5 5 0 0 1 1.8 0 15.38 15.38 0 0 0 5.4 0 14.9 14.9 0 0 1 7.4.6 6.4 6.4 0 0 1 3.6 2.8.73.73 0 0 0 .5.3c.7.13 1.5.22 2.2.43a3.28 3.28 0 0 1 1.3.7 9.94 9.94 0 0 0 2.6 1.7l1 .5a4.77 4.77 0 0 1 2.1 2.1 16.65 16.65 0 0 0 1.3 2.24 5.1 5.1 0 0 1 .8 4.6 10.14 10.14 0 0 1-2.1 4c-.8 1-1.7 2.1-2.6 3.1a3.14 3.14 0 0 0-.6 3.6 11.73 11.73 0 0 1 .8 4.5 3.08 3.08 0 0 0 1.9 2.9c.8.35 1.5.73 2.2 1.15a13.16 13.16 0 0 1 5.5 6.1c.3.5.5 1 .7 1.5a9.24 9.24 0 0 0 2.5 3.54 38.35 38.35 0 0 1 8 9.8 50.72 50.72 0 0 0 7.5 9.7c2.4 2.6 4.8 5.1 7.1 7.9 3 3.6 5.2 7.8 7.6 12a78.9 78.9 0 0 1 5.9 12.5 43.76 43.76 0 0 1 1.87 7.9l.3 1.6a16.4 16.4 0 0 1 .1 2.9 15.62 15.62 0 0 0 .15 4.8 3.5 3.5 0 0 1 .1 1 .64.64 0 0 0 .4.7c.8.4 1.5.8 2.2 1.1a23 23 0 0 1 7.9 5.1 8.64 8.64 0 0 1 1.5 2.1 2.93 2.93 0 0 1-.9 3.8 10.58 10.58 0 0 1-4.4 1.97 23.85 23.85 0 0 1-2.74.3l-3.3.3-4.5.2c-2.36.1-4.73.1-7.1.2-1.1 0-2.2.3-3.3.4l-2.7.3-4.5.34a6.64 6.64 0 0 1-3.7-.63.6.6 0 0 0-.4 0 13.36 13.36 0 0 1-7.5.1 4.2 4.2 0 0 0-1.55 0 3.85 3.85 0 0 1-2.52-.4 1.84 1.84 0 0 0-.9-.13c-.4 0-.8.1-1.23.1a1 1 0 0 1-1.2-.9 8.8 8.8 0 0 1-.1-4.3 3.06 3.06 0 0 1 1.7-2.2.54.54 0 0 0 .22-.2 4.67 4.67 0 0 0 .2-.5 1.37 1.37 0 0 0-.4-.2q-1.9-.2-3.8-.2a6.8 6.8 0 0 0-1.2 0 .65.65 0 0 0-.4.3 13.84 13.84 0 0 0-.44 2.1c-.1 1.7-.2 3.35-.4 5a1.4 1.4 0 0 1-.5.8 4.77 4.77 0 0 1-2.52 1 11.8 11.8 0 0 1-4-.1 1.52 1.52 0 0 0-.7.1 3.7 3.7 0 0 1-2.9-.16 4.92 4.92 0 0 0-1.7-.3 1.42 1.42 0 0 1-1.62-1.2 4.06 4.06 0 0 0-.7-1.3 1.75 1.75 0 0 1-.3-1.8 9.7 9.7 0 0 1 3.4-5 1.58 1.58 0 0 0 .8-1.8 2.4 2.4 0 0 1 1.2-2.6 2.73 2.73 0 0 0 1.28-2.7c-.07-.5-.1-.97-.2-1.4-.2-1.56-.37-3-.6-4.6-.4-2.1-.87-4.23-1.3-6.35-.2-.9-.4-1.8-.67-2.7a11.47 11.47 0 0 1 0-3.9c.1-.6.1-1.2.1-1.7a1.8 1.8 0 0 0-1-1.8c-1.3-.7-2.6-1.55-3.8-2.36a13.06 13.06 0 0 1-1.2-1c-.3-.3-.6-.5-.8-.7zm25.3 27.38a5.22 5.22 0 0 0-1.16-2.7 19.57 19.57 0 0 1-2.32-3.86 6.37 6.37 0 0 0-.68-1.24 13.54 13.54 0 0 0-1.33-1.4 2.37 2.37 0 0 0-.6-.3 38.73 38.73 0 0 0 .7 8.18 6.77 6.77 0 0 1 3.2.8 4.8 4.8 0 0 0 2.3.5z"/>
  <path d="M466.7 620.1a1.23 1.23 0 0 1-1.06.45 1.25 1.25 0 0 1-.5 0 1 1 0 0 1-.56-.44.14.14 0 0 0-.1 0l-.94-.1a.15.15 0 0 0-.08 0l-.53.3a.36.36 0 0 1-.38 0 .17.17 0 0 0-.1 0 .42.42 0 0 1-.55-.3.13.13 0 0 0-.15-.1l-2.14-.2-1.6-.1a.2.2 0 0 1-.2-.1 1 1 0 0 1 0-.8.3.3 0 0 1 .4-.1l1.3.1 2.3.3a.6.6 0 0 1 .5-.4l.4-.1a.36.36 0 0 0 .3-.4c0-.2 0-.5-.1-.8s0-.5-.1-.7a.17.17 0 0 0 0-.1l-1-1.1a.17.17 0 0 1-.2.1 1.73 1.73 0 0 1-.6-.5 3.4 3.4 0 0 1-.8-1.6 8.82 8.82 0 0 1 0-3.1 4.3 4.3 0 0 1 .6-1.5v-.1a2.13 2.13 0 0 1-1-.3l-.2.6-.1.5s-.1.2-.2.1a3.16 3.16 0 0 1-.7-.7 3.6 3.6 0 0 1-.1-4.1l.4-.5a.8.8 0 0 1 .4-.9 2.92 2.92 0 0 1 1-.4 6 6 0 0 1 2-.1 5.87 5.87 0 0 1 2.5.6 3 3 0 0 1 1 .8c.4.4.8 1 1.2 1.5l.9 1.2.4.5a1.17 1.17 0 0 0 .3.2 4 4 0 0 1 1.2 1 6.82 6.82 0 0 1 .9 1.6 11.13 11.13 0 0 1 .6 2.1 12.77 12.77 0 0 1 .3 3.4c0 .4-.1.9-.1 1.3a3.33 3.33 0 0 0 0 .6 1.22 1.22 0 0 0 .2.4l.7 1.6.7 1.6a5.54 5.54 0 0 1 .4 1.3v.2a.54.54 0 0 1-.2 0l-.5-.5a2.6 2.6 0 0 0-.2-.2l.2.5.14.6s-.1.28-.2.2l-.6-.4-.1-.03a.36.36 0 0 0 0 .1c.3.55.7 1.1 1 1.64s.65 1.1 1 1.65.6 1.1.9 1.7l.7 1.5a3.94 3.94 0 0 1 .18.7.22.22 0 0 1-.1.28.24.24 0 0 1-.3-.02 3.54 3.54 0 0 1-.4-.4l-.7-1 .3.7.6 1.8a2.6 2.6 0 0 1 .1.7c0 .2-.1.3-.33.2a1.1 1.1 0 0 1-.5-.5c-.3-.5-.57-.9-.8-1.37-.3-.7-.63-1.4-1-2.1l-.3-.7a.08.08 0 0 0-.05 0l.2.4c.3.7.56 1.4.8 2.12.13.4.2.8.3 1.2a.26.26 0 0 1-.1.33.3.3 0 0 1-.5-.2 2.13 2.13 0 0 1-.5-.66c-.1-.2-.2-.4-.4-.6v.07a.3.3 0 0 1-.4.2 1.43 1.43 0 0 1-.8-.7l-.6-1.2-.6-1.8-.5-1.7-.57-1.7-.3-1.1-.4-1.3z"/>
  <path d="M524.57 631.47a.5.5 0 0 0-.13 0 20.6 20.6 0 0 1-5-.6 18.45 18.45 0 0 1-3.5-1.26 21.3 21.3 0 0 0-5.64-1.8c-.23 0-.46 0-.68-.1a5.73 5.73 0 0 1-.64-.2 6.5 6.5 0 0 1-.62-.2 3.5 3.5 0 0 1-.48-.3.34.34 0 0 1-.05-.1.44.44 0 0 1 .17 0 .73.73 0 0 1 .28.1 5.53 5.53 0 0 0 2.06.7l3.57.9c.6.2 1 .5 1.6.6.8.3 1.6.5 2.4.8a11.53 11.53 0 0 0 2 .6 19.93 19.93 0 0 0 4.7.3 24.56 24.56 0 0 0 3.4-.4 9.83 9.83 0 0 0 3.7-1.6 2 2 0 0 0 .7-1 2.33 2.33 0 0 0-.4-2.3 10.08 10.08 0 0 0-1.4-1.4c-.6-.5-1.1-1-1.7-1.5l-1-.7a.56.56 0 0 0-.6-.1.7.7 0 0 1-.6 0 2.26 2.26 0 0 1-1-.8.35.35 0 0 0-.1-.1c-.1-.1-.2 0-.2.1a1.32 1.32 0 0 0 0 .2 1.12 1.12 0 0 1-1 1.2 2.58 2.58 0 0 1-1.2-.1 3.77 3.77 0 0 0-1.2-.3 1.3 1.3 0 0 0-.3 0c-.1.1-.2.2 0 .3l.2.2a.54.54 0 0 1-.6-.5.33.33 0 0 1 0-.3 2.4 2.4 0 0 1 .4-.1 1.8 1.8 0 0 0 .2 0c-.2-.2-.4-.3-.6-.5a.36.36 0 0 0-.2-.1 2.88 2.88 0 0 1-1.4-.3 2.54 2.54 0 0 0-.7-.2c-.4 0-.5 0-.6.5v.1a.9.9 0 0 1-.1-.1.57.57 0 0 1 .5-.8 1.7 1.7 0 0 1 .5.1c.2 0 .3.2.5.2s.6.2.8.2l.8.2s.2 0 .1-.2v-.1c0-.2 0-.2-.3-.2a.27.27 0 0 1 .5-.1 1.28 1.28 0 0 1 .2.3.52.52 0 0 0 .7.3h.3a.17.17 0 0 0 .2-.2.14.14 0 0 1 0-.1.24.24 0 0 1 .1 0 .18.18 0 0 1 .1.1 1 1 0 0 1 0 .2.22.22 0 0 0 .4.1.15.15 0 0 0 0-.1l-.4-.5a2.75 2.75 0 0 1-.2-.4v.05a.1.1 0 0 1 0-.1.43.43 0 0 0 .1-.17 1 1 0 0 0-.2-.4l-2-2.6a5.66 5.66 0 0 0-.6-.66.37.37 0 0 0-.6 0l-.6.5a2.93 2.93 0 0 1-.4.3 2.53 2.53 0 0 0-.9.8 3.07 3.07 0 0 0-.2.6c-.2-.17-.4.06-.5.3a.28.28 0 0 1-.3.2 1.14 1.14 0 0 0-.5 0 .92.92 0 0 1-.7 0 .32.32 0 0 0-.1 0 1.8 1.8 0 0 1-1-.3 1.32 1.32 0 0 0-.4-.2.3.3 0 0 0-.4.3v.1a.52.52 0 0 1-.1-.47.33.33 0 0 1 .4-.3.55.55 0 0 0-.5-.3c-.3 0-.2.3-.4.4a.46.46 0 0 1 0-.5.47.47 0 0 1 .4-.3.86.86 0 0 1 .4.1.6.6 0 0 1 .2.2 1.17 1.17 0 0 0 1 .43.2.2 0 0 0 .1 0 .18.18 0 0 0 0-.16.66.66 0 0 1-.2-.6.67.67 0 0 1 .1-.2.86.86 0 0 1 .1.2l.3.5a.46.46 0 0 0 .7.1 11.08 11.08 0 0 1 1.4-1.5 5 5 0 0 0 .4-.4 4.72 4.72 0 0 1 1.5-1.1.76.76 0 0 0 .2-.1 1.08 1.08 0 0 0-.3 0 1.38 1.38 0 0 1-1-.3.26.26 0 0 1-.1-.2c0-.2.1-.4.1-.6a3.08 3.08 0 0 0-.1-.7 4 4 0 0 0-.2-.7 1 1 0 0 0-.2-.4c-.4-.4-.74-.6-1.1-.9a1.08 1.08 0 0 1-.5-.8.5.5 0 0 0-.13-.3.87.87 0 0 1 0-1 .43.43 0 0 1 .2-.1 3.73 3.73 0 0 1 .4-.1.58.58 0 0 1 .3 0 .45.45 0 0 0 .5-.1 4.52 4.52 0 0 1 .6-.4.53.53 0 0 1 .7.1l.2.1a.37.37 0 0 0 .5.1.2.2 0 0 1 .3.1v.1c.2.2.2.2.4.1a1 1 0 0 1 1.1.2 1.07 1.07 0 0 1 .1.2.47.47 0 0 1 .6-.1c-.1.1-.3.04-.3.3.15 0 .3-.1.5-.1h.5c-.16 0-.3 0-.47.1a.4.4 0 0 0-.36.3 3.08 3.08 0 0 1 1.4 0v.1h-.73a.4.4 0 0 0-.44.4 1.44 1.44 0 0 1 .8-.2 1 1 0 0 0-.6.6 1.62 1.62 0 0 1 1.1-.2.52.52 0 0 1 .2.1v.1h-.2a3.53 3.53 0 0 0-.5 0 .8.8 0 0 0-.2.1h.5a.67.67 0 0 1 .5.1l-.6.1a.57.57 0 0 0-.44.3h.2a.5.5 0 0 1 .2 0 1 1 0 0 1 .2.1l-.13.1-.1.1a1.22 1.22 0 0 0 .6.3.4.4 0 0 1 .3.2 1.37 1.37 0 0 0 .5.4l.4.3 3.46 2.37a6.88 6.88 0 0 1 1.8 2.1 1.48 1.48 0 0 1 .1.33 1.1 1.1 0 0 0 .3.6.55.55 0 0 1 .1.1l.6-.3a2.83 2.83 0 0 1 1.8-.32.85.85 0 0 1 .3.1l.36.1.2.2a1 1 0 0 0 .3.2 2.3 2.3 0 0 1 .92.5c.3.3.6.6.8.9a.45.45 0 0 0 .7 0c.14-.15.33-.3.5-.5a2.93 2.93 0 0 0 .2-.3.3.3 0 0 1 .2-.15.2.2 0 0 1 .13.1 2 2 0 0 1 0 .9l-.1-.45-.67.76a.2.2 0 0 0 0 .15.4.4 0 0 0 .5.3l.7-.3a1 1 0 0 1 .33 0 .9.9 0 0 0 .5-.1.5.5 0 0 1 .6.4.83.83 0 0 1-.3.6v-.2a.36.36 0 0 0-.4-.5 2.22 2.22 0 0 0-.9.1l-.8.3a1.6 1.6 0 0 0-.3.2 1.6 1.6 0 0 1-1.8 0l-1-.55a.3.3 0 0 0-.15 0h-.2a.87.87 0 0 0 0-.1.27.27 0 0 0 0-.17l-.2-.3-.5-.6a.52.52 0 0 0-.2-.2.2.2 0 0 0-.2.08 1.5 1.5 0 0 0-.1.2.92.92 0 0 1-.4.5.53.53 0 0 0-.18.1.2.2 0 0 0 0 .4.28.28 0 0 1 .2.25.32.32 0 0 0 .1.2 2.2 2.2 0 0 1 .2.1.55.55 0 0 1 .15.3.82.82 0 0 0 .18.4 19.2 19.2 0 0 1 1.9 3.8 3.54 3.54 0 0 1-.5 3.4 5.26 5.26 0 0 1-1.8 1.5 12.48 12.48 0 0 1-3.2 1.2 16.82 16.82 0 0 1-3.9.4 1.1 1.1 0 0 0-.2.1z"/>
  <path fill="#010101" d="M424.07 610.92a5.26 5.26 0 0 0 1.62-3.66c0-1.22-.6-2.18-1.8-2.18a1.67 1.67 0 0 0-1.7 1.56c-.2 1.4-.7 1.87-1.8 1.87a1.62 1.62 0 0 1-1.7-1.7c0-2.6 1.8-4.5 5-4.5 3.6 0 5.5 1.8 5.5 5.3a6.72 6.72 0 0 1-2.2 4.8l-.9.9c-1.3 1.4-1.6 2-1.8 3.4a1.52 1.52 0 0 1-1.6 1.5 1.62 1.62 0 0 1-1.7-1.8 6.58 6.58 0 0 1 1.6-4.2zm-1.07 8.15a2.16 2.16 0 1 1-2.16 2.16 2.16 2.16 0 0 1 2.16-2.16z"/>
  <g style="isolation:isolate">
    <path fill="#a7a7a7" d="M27.65 338.65l8.04-8.1.6 31.3-8.1 8.1-.6-31.3"/>
    <path fill="#9e9e9e" d="M28.26 369.96l8.04-8.12h345.9l-8.05 8.12H28.25"/>
    <path fill="#d9c900" d="M373.54 338.65l.6 31.3H28.27l-.6-31.3h345.88"/>
    <path fill="#b7ab00" d="M373.54 338.65l8.04-8.1.6 31.3-8.03 8.1-.6-31.3"/>
    <path fill="#afa400" d="M27.65 338.65l8.04-8.1h345.8l-8.1 8.1H27.6"/>
    <path fill="#9e9e9e" d="M373.54 338.65l8.04-8.1h213.8l-8.03 8.1h-213.8"/>
    <path fill="#a7a7a7" d="M587.35 338.65l8.04-8.1.6 31.3-8.1 8.1-.6-31.3"/>
    <path fill="#cdcdcd" d="M587.35 338.65l.6 31.3H28.25l-.6-31.3.6 31.3h345.9l-.6-31.3h213.8"/>
  </g>
  <text fill="#010101" transform="translate(39.38 359.92)" font-size="14" font-family="Roboto Slab" font-weight="700">
    62% of U.S. <tspan x="74.88" y="0">h</tspan><tspan x="83.71" y="0">ouse</tspan><tspan x="114.96" y="0">h</tspan><tspan x="123.79" y="0">o</tspan><tspan x="131.5" y="0">lds own a pet</tspan>
  </text>
  <text fill="#fff" transform="translate(17.58 213.57)" font-size="66.28" font-family="Roboto Slab" font-weight="700">
    WOOF vs.<tspan x="303.51" y="0" letter-spacing="-5"> </tspan><tspan x="314.46" y="0">MEOW</tspan>
  </text>
</svg>
