<svg xmlns="http://www.w3.org/2000/svg" xmlns:xlink="http://www.w3.org/1999/xlink" viewBox="0 0 612 792">
  <g data-name="Layer 1" style="isolation:isolate">
    <rect width="272.54" height="92.94" x="162.68" y="247.58" fill="#5bba47" rx="16.43" ry="16.43"/>
    <use transform="matrix(.24 0 0 .24 148.08 345.12)" opacity=".6" xlink:href="#a" style="mix-blend-mode:multiply"/>
    <rect width="272.54" height="92.94" x="162.68" y="359.72" fill="#00a651" rx="16.43" ry="16.43"/>
    <use transform="matrix(.24 0 0 .24 148.08 458.34)" opacity=".6" xlink:href="#a" style="mix-blend-mode:multiply"/>
    <rect width="272.54" height="92.94" x="162.68" y="472.94" fill="#008d4c" rx="16.43" ry="16.43"/>
    <text fill="#fff" transform="translate(162.68 207.85)" font-size="12.28" font-family="Roboto Slab">
      BUT WH<tspan x="48.94" y="0" letter-spacing="-1">A</tspan><tspan x="56.85" y="0">T ABOUT THE </tspan><tspan x="141.32" y="0">O</tspan><tspan x="149.82" y="0">THER GROUPS?</tspan>
    </text>
    <path fill="none" stroke="#fff" stroke-width="1.96" stroke-miterlimit="10" d="M162.68 213.66h259.36" stroke-linecap="round"/>
    <text fill="#fff" transform="translate(190.88 272.22)" font-size="7" font-family="Roboto Slab">
      PEOPLE WITH DOGS AND C<tspan x="90.99" y="0">A</tspan><tspan x="95.5" y="0">T</tspan><tspan x="99.83" y="0">S TEND </tspan><tspan x="126.61" y="0">T</tspan><tspan x="130.91" y="0">O BE...</tspan>
    </text>
    <text fill="#fff" transform="translate(190.88 382.85)" font-size="7" font-family="Roboto Slab">
      PEOPLE WITH E<tspan x="53.36" y="0">X</tspan><tspan x="57.99" y="0">O</tspan><tspan x="62.83" y="0">TIC P</tspan><tspan x="80.19" y="0">E</tspan><tspan x="84.72" y="0">T</tspan><tspan x="89.05" y="0">S TEND </tspan><tspan x="115.83" y="0">T</tspan><tspan x="120.12" y="0">O BE...</tspan>
    </text>
    <text fill="#010101" transform="translate(190.88 286.22)" font-size="7" font-family="Roboto Slab">
      F<tspan x="4.28" y="0">emale</tspan><tspan x="0" y="8.4">35-49</tspan><tspan x="0" y="16.8">Suburbanites</tspan><tspan x="0" y="25.2">P</tspan><tspan x="4.4" y="25.2">o</tspan><tspan x="8.26" y="25.2">litically middle of t</tspan><tspan x="71.12" y="25.2">h</tspan><tspan x="75.61" y="25.2">e </tspan><tspan x="81.11" y="25.2">r</tspan><tspan x="83.94" y="25.2">oad</tspan><tspan x="0" y="33.6">Described as original a</tspan><tspan x="75.62" y="33.6">n</tspan><tspan x="80.09" y="33.6">d unique</tspan>
    </text>
    <text fill="#010101" transform="translate(190.88 398.45)" font-size="7" font-family="Roboto Slab">
      Male<tspan x="0" y="8.4">U</tspan><tspan x="5.27" y="8.4">n</tspan><tspan x="9.74" y="8.4">der 18</tspan><tspan x="0" y="16.8">Suburbanites</tspan><tspan x="0" y="25.2">P</tspan><tspan x="4.4" y="25.2">o</tspan><tspan x="8.26" y="25.2">litically middle of t</tspan><tspan x="71.12" y="25.2">h</tspan><tspan x="75.61" y="25.2">e </tspan><tspan x="81.11" y="25.2">r</tspan><tspan x="83.94" y="25.2">oad</tspan><tspan x="0" y="33.6">Described as original a</tspan><tspan x="75.62" y="33.6">n</tspan><tspan x="80.09" y="33.6">d unique</tspan>
    </text>
    <text fill="#fff" transform="translate(190.88 493.81)" font-size="7" font-family="Roboto Slab">
      PEOPLE WITH NO P<tspan x="65.35" y="0">E</tspan><tspan x="69.88" y="0">T</tspan><tspan x="74.22" y="0">S TEND </tspan><tspan x="100.99" y="0">T</tspan><tspan x="105.29" y="0">O BE...</tspan>
    </text>
    <text fill="#010101" transform="translate(190.88 509.41)" font-size="7" font-family="Roboto Slab">
      Male<tspan x="0" y="8.4">18 – 34</tspan><tspan x="0" y="16.8">City Dwellers</tspan><tspan x="0" y="25.2">P</tspan><tspan x="4.4" y="25.2">o</tspan><tspan x="8.26" y="25.2">litically Liberal</tspan><tspan x="0" y="33.6">Optimists</tspan><tspan x="0" y="42">Described as successful a</tspan><tspan x="84.88" y="42">n</tspan><tspan x="89.35" y="42">d admira</tspan><tspan x="119.01" y="42">b</tspan><tspan x="123.03" y="42">le</tspan>
    </text>
    <path fill="#010101" d="M374.65 297.76v-.57c-.08-.6-.16-1.1-.26-1.6a16.8 16.8 0 0 0-1.1-3.2 2.37 2.37 0 0 0-.8-.9.5.5 0 0 0-.1 0 .25.25 0 0 1-.2-.1 4.9 4.9 0 0 0-.3-.7c-.2-.3-.2-.7-.4-1l-.7-1.6a.94.94 0 0 1-.1-.7.85.85 0 0 0-.1-.7 10.37 10.37 0 0 1-.8-2.7v-.4l-.3-1.9a5.08 5.08 0 0 0-.2-1.3 2 2 0 0 1-.2-.5 5.17 5.17 0 0 0-.7-1.7 1 1 0 0 0-.2-.3 3.4 3.4 0 0 0-1.1-.6 1.67 1.67 0 0 0-.6-.2 1.9 1.9 0 0 1-.6-.2 1.4 1.4 0 0 1-1-1 .94.94 0 0 0-1.1-.7.45.45 0 0 1-.2 0 .15.15 0 0 1-.1-.1 2.12 2.12 0 0 1 0-1.2l.2-.8a.3.3 0 0 1 .1-.2.47.47 0 0 0 .3-.6.45.45 0 0 1 .1-.5.75.75 0 0 0 .4-.6.45.45 0 0 0 0-.4.7.7 0 0 1 0-.6.93.93 0 0 0 .1-.4v-1a.8.8 0 0 0-.4-.7l-.3-.3a2.9 2.9 0 0 0-.5-.4 1.66 1.66 0 0 1-.7-.6.38.38 0 0 0-.2-.2l-1.2-.2a.5.5 0 0 0-.2 0 3.5 3.5 0 0 0-1.3.4l-1 .6a1.37 1.37 0 0 0-.7.8c0 .1-.1.3-.1.4a1.8 1.8 0 0 0 0 .4v.7a3.4 3.4 0 0 0 0 .6c.1.4.2.7.2 1.1a.56.56 0 0 0 .1.1l.3.4a.33.33 0 0 1 0 .1 1.34 1.34 0 0 0 .4 1 .85.85 0 0 0 .2.1.26.26 0 0 1 .2.1 5.38 5.38 0 0 1 .2.9 2.12 2.12 0 0 1-.2 1.2.8.8 0 0 1-.4.4 3.93 3.93 0 0 0-.5.3 1.3 1.3 0 0 0-.7 1 .26.26 0 0 1-.1.1 6.74 6.74 0 0 1-.7.5c-.3.2-.7.3-1.1.5a.36.36 0 0 0-.2.1c-.1.1-.1.2-.2.3a2.44 2.44 0 0 0-.4 1 8.35 8.35 0 0 1-.2.83 2.53 2.53 0 0 0-.1 1.5 9.63 9.63 0 0 1 .1 2.2.45.45 0 0 1 0 .1l-.4 1.9a2.92 2.92 0 0 1-.1.7 4.14 4.14 0 0 0-.3 1c0 .25-.1.5-.15.8a4.27 4.27 0 0 0 .1 2.4 1.86 1.86 0 0 1 0 1 .42.42 0 0 1-.1.2 1.5 1.5 0 0 0-.4.7c-.07.2-.1.4-.2.6-.3.6-.56 1.16-.8 1.75a1.4 1.4 0 0 1-.4.6.35.35 0 0 0-.1.3 6.64 6.64 0 0 0 .24.67.22.22 0 0 1 0 .1 3.73 3.73 0 0 0-.2 2.4 1.5 1.5 0 0 0 .4.9c.1.1.26.25.4.34a2.2 2.2 0 0 0 .4.2.16.16 0 0 0 .15 0c.1-.2.2-.15.3-.1a.34.34 0 0 0 .3 0 1.57 1.57 0 0 0 .3-.6.68.68 0 0 0-.3-.7.85.85 0 0 1-.3-.86c.07-.4.16-.9.2-1.4v-.2h.2c0 .2.1.4.1.5a6 6 0 0 0 .7 2.3 1.6 1.6 0 0 1 .2.5 9.92 9.92 0 0 0 .36 1.9 5.1 5.1 0 0 1 .14.62 7.26 7.26 0 0 0 .6 1.8 3.6 3.6 0 0 1 .4 1.6.37.37 0 0 0 0 .2l.2.2c0 .1.1.15.1.2a.77.77 0 0 1 .2.25 10.07 10.07 0 0 1 .2 1.3v1.6a9.2 9.2 0 0 0 .2 1.2c.04.4.13.7.22 1.1s.2.7.4 1.1c0 .1.05.2.1.3a10.48 10.48 0 0 1 .3 1.4 1.63 1.63 0 0 0 .1.35c.12.4.3.8.4 1.2a4.64 4.64 0 0 0 .54 1.4 1.44 1.44 0 0 1 .2.95 5.78 5.78 0 0 0 .1 1.2 9.6 9.6 0 0 1-.02 1.2.6.6 0 0 1-.1.1l-.3 1a3.12 3.12 0 0 0-.1.6 1.4 1.4 0 0 0 0 .5.4.4 0 0 0 .4.3h.1a6.7 6.7 0 0 0 2-.1l.6-.1a.08.08 0 0 0 0-.1 3.46 3.46 0 0 1-.1-1.2 3.52 3.52 0 0 1 .1-.6 7.67 7.67 0 0 1 .3-.7.23.23 0 0 1 .1.1 3.7 3.7 0 0 1 .1.47 3.54 3.54 0 0 0 .1 1.1 1.47 1.47 0 0 1 .14.5 1.47 1.47 0 0 0 .2.4.55.55 0 0 0 .5.4h1.4a3.36 3.36 0 0 0 .5 0 .16.16 0 0 0 .1-.3.7.7 0 0 0 .36-.5 2.52 2.52 0 0 0-.2-.85l-.4-1.1a1 1 0 0 1 0-.3 1.88 1.88 0 0 0-.3-.95 1 1 0 0 1-.13-.7.53.53 0 0 0-.1-.4.54.54 0 0 1-.1-.2c0-.35-.1-.7-.1-1a1.28 1.28 0 0 1 0-.2v-1c0-.4.1-.8.1-1.2v-1c0-.5 0-1 .1-1.5s0-1.2 0-1.8a4 4 0 0 0 0-.45c0-.3-.1-.7-.1-1a10.65 10.65 0 0 0-.2-1.2 10.9 10.9 0 0 1-.4-2 5.33 5.33 0 0 1 0-1.1 9.9 9.9 0 0 1 .4-1.3.88.88 0 0 1 0-.1.76.76 0 0 0 .1-.2l.1-1a.5.5 0 0 1 .1-.2 2.18 2.18 0 0 0 .16-.2l.3-.7a2.93 2.93 0 0 0 .36-1.18 3 3 0 0 1 .1-.7l.2-.7a.88.88 0 0 1 .4-.74 1.07 1.07 0 0 1 .4-.1h1.34a10.37 10.37 0 0 1 2-.3h2.1a2.16 2.16 0 0 1 .7-.02.3.3 0 0 0 .1 0l.2-.06s.3-.3.3-.6zm-11 21.5a9 9 0 0 1-.14 1 .55.55 0 0 1-.1-.2.28.28 0 0 0-.1-.2 1 1 0 0 1-.4-.75c0-.4-.1-.8-.1-1.2l-.1-1.4v-2.6c0 .2.1.3.2.4a1.5 1.5 0 0 0 .2.4 1 1 0 0 1 .2.6 5 5 0 0 0 .4 1.4.75.75 0 0 1 0 .2c.1.5.2 1 .2 1.5a8.24 8.24 0 0 1 .2 1.2zm4.64-28a2.3 2.3 0 0 1-.1.32.2.2 0 0 1-.1.12.27.27 0 0 1-.2-.1l-.4-1.36a4.62 4.62 0 0 1-.1-.53c0-.1 0-.3-.1-.4s-.1-.3-.2-.5a1.1 1.1 0 0 0-.2-.3.92.92 0 0 1-.2-1c.1-.1.1-.3.2-.5s.2-.2.3 0l.3.9h-.1l.1 1.3v.7a.93.93 0 0 0 .3.7.33.33 0 0 1 .1.2c-.1.3-.1.6-.1.8zm1.6.46l-.6.1a4.13 4.13 0 0 0-.5 0c-.2 0-.2 0-.2-.14l.1-.75a.18.18 0 0 1 .2-.2 5.35 5.35 0 0 1 .7.16.42.42 0 0 1 .2.2 1.82 1.82 0 0 1 .1.3.25.25 0 0 1-.2.2zm1.7-.08h-.7a.13.13 0 0 1-.2-.14v-.35a.25.25 0 0 0-.2-.23.3.3 0 0 1-.2-.56 1.66 1.66 0 0 0 .1-.2l.3-.4s.1-.07.2 0 .2.5.3.76a4 4 0 0 1 .1.5c0 .14 0 .28.1.43a.52.52 0 0 1-.1.2z"/>
    <path d="M366.5 553.28h-.6l-.82-.1a.4.4 0 0 1-.38-.42 4.17 4.17 0 0 1 .13-1.35c.1-.4.24-.8.35-1.3a.48.48 0 0 0-.22-.6 3.86 3.86 0 0 1-1-.9c-.15-.2-.14-.2 0-.4h.08l.56-.4a.32.32 0 0 0 .14-.5l-.05-.1a.63.63 0 0 1 0-.1 1.22 1.22 0 0 0 0-.2l-2-7.5-.1-.2c0 .3-.1.5-.1.8-.1.9-.3 1.7-.4 2.6l-.2 1.2a.6.6 0 0 0 0 .5l.2.4a1.24 1.24 0 0 1 .1.4 2.87 2.87 0 0 1 .1.6v1.5a1.86 1.86 0 0 1-.2 1 .24.24 0 0 0 0 .1v.8s0 .4-.4.5a9.78 9.78 0 0 1-2.1.1.6.6 0 0 1-.6-.4.24.24 0 0 0-.2-.1.42.42 0 0 0-.2 0l-.8.3a3.37 3.37 0 0 1-.6.2c-.6.1-1.1.2-1.7.2a4.66 4.66 0 0 1-1.4 0 3.75 3.75 0 0 1-1.4-.6v-.1l.4-.6a.93.93 0 0 1 .6-.4 8.36 8.36 0 0 1 1.5-.1 1.08 1.08 0 0 0 .6-.2l.6-.5a2.38 2.38 0 0 1 .4-.4.4.4 0 0 0 .2-.4v-.1a3.9 3.9 0 0 1 0-.5c.1-.7.2-1.4.4-2.2a4.1 4.1 0 0 0 0-1.8l-.3-1.2c-.3-1.3-.4-2.6-.6-3.9l-.3-2.2c-.1-.5-.2-1.1-.2-1.6-.1-1.2-.2-2.3-.2-3.5s-.1-2.1-.1-3.2a8.1 8.1 0 0 0-.1-1l-.5-2.7a2.1 2.1 0 0 0-.4-.9c-.3-.4-.6-.8-.9-1.1a.86.86 0 0 1-.2-.6 3.83 3.83 0 0 1 .1-.9l1-3.5a7.08 7.08 0 0 0 .3-1.9 16.7 16.7 0 0 1 .1-1.7 4.4 4.4 0 0 1 .1-.8 4.73 4.73 0 0 0 .2-1v-1l.1-2.7a5.1 5.1 0 0 1 .3-1.6 1.43 1.43 0 0 1 .6-.8l.3-.2 2-1.2h.1a1.07 1.07 0 0 1 0 .18l-.3.5a6.84 6.84 0 0 0-.6 1 11 11 0 0 0-.8 2.58l-.1 1a.63.63 0 0 0 0 .2h.1a1.2 1.2 0 0 0 .1-.2c.1-.3.1-.6.2-.9l.5-1.5a19.74 19.74 0 0 1 1-2.54 7.88 7.88 0 0 1 .4-.76.6.6 0 0 1 .4-.3c.1 0 .2 0 .2.2a2.2 2.2 0 0 0 .1.5.3.3 0 0 1 0 .4 4.33 4.33 0 0 0-.3.4.8.8 0 0 0-.1.3.1.1 0 0 0 .14.1 1.12 1.12 0 0 0 .2-.2c.1-.1.1-.2.2-.26l1.1-1.2 1.8-1.8a.2.2 0 0 1 .3 0 2 2 0 0 1 .3.4 1.33 1.33 0 0 0 .9.77h.1l2.2.6a1.84 1.84 0 0 1 1.4 1.27 6 6 0 0 1 .3.9c.02.3.1.6.1.9 0 .2.03.3.05.5s0 .3 0 .4v1.2a2.73 2.73 0 0 0-.1.5v1.4a2.6 2.6 0 0 1-.1 1 1.23 1.23 0 0 0-.1.5v1.9a6.37 6.37 0 0 1-.1 1.7 29 29 0 0 1-.8 2.8l-.6 1.4a1 1 0 0 0-.1.5l.2 1.3a3.62 3.62 0 0 1 0 1.3 8.87 8.87 0 0 1-1 2.6.36.36 0 0 0-.08.1c0 .5 0 1-.1 1.6s0 1.3 0 1.9v1.6q0 1.6.1 3.1a12.62 12.62 0 0 0 .1 1.4c.2 1.3.5 2.6.5 3.9 0 .8.2 1.6.2 2.47 0 .53.1 1 .2 1.6l.6 4a1.43 1.43 0 0 1-.78 1.63l-.2.1a.23.23 0 0 0-.1.4.36.36 0 0 0 .1.1l.6.4a.35.35 0 0 1 .2.4 2.08 2.08 0 0 1-.2.6 1.85 1.85 0 0 0-.2.85 10.8 10.8 0 0 0 .2 2.3 2.22 2.22 0 0 0 0 .23.84.84 0 0 1-.4 1 3.26 3.26 0 0 1-1.1.5zm-1.7-33.4c-.16 0-.2.07-.18.24s.07.25.08.38a2 2 0 0 0 1.2 1.63.33.33 0 0 0 .43-.07.57.57 0 0 0 .12-.18c.1-.24.2-.48.28-.72v-.06a.14.14 0 0 0-.07-.17L365 520a1.4 1.4 0 0 0-.2-.1zm-7.2-2.08l.26-.23c.1.2.1.2.27.23s.3-.08.2-.27c-.18-.48-.4-.95-.6-1.42a1.4 1.4 0 0 0-.1-.1.74.74 0 0 0-.07.2 2.27 2.27 0 0 0-.06.4v1.1a.17.17 0 0 0 .1.3z"/>
    <path d="M362.73 491.1a5.07 5.07 0 0 1 .56.15A3.23 3.23 0 0 1 365 493a1.84 1.84 0 0 1 .1.94c0 .45-.1.9-.13 1.33v.17c.2-.12.3-.06.35.16a.87.87 0 0 1-.06.5l-.16.46-.15.33a.46.46 0 0 1-.33.2.14.14 0 0 0-.07.1c0 .2-.07.5-.1.7a.5.5 0 0 1-.2.3l-.7.4-1.93 1.2c-.2.1-.38.3-.57.4h-.12c0-.3-.08-.5-.1-.7s0-.8-.07-1.1a.43.43 0 0 0-.16-.4 1.58 1.58 0 0 1-.6-1.3c0-.2 0-.3-.17-.3a.16.16 0 0 1-.08-.2 5.42 5.42 0 0 0-.2-1.2c0-.3 0-.4.32-.4l-.06-.6a4 4 0 0 1 0-1.2 3.3 3.3 0 0 1 .8-1.6 2.06 2.06 0 0 1 .8-.5 2.86 2.86 0 0 1 .9-.2h.6z"/>
    <path d="M355.77 383.84l-.38-.22a.3.3 0 0 1-.1-.5 4.44 4.44 0 0 1 .3-.34.66.66 0 0 0 .1-.87 2 2 0 0 1-.1-.2c0-.1-.1-.1.1-.2a.16.16 0 0 0 .1-.1l.2-1.4a.73.73 0 0 0-.4-.8h-.1a1.42 1.42 0 0 0 .3-.1 3 3 0 0 0 .3-.3 2 2 0 0 1 .1-.2 3.48 3.48 0 0 1 1-.6 9.7 9.7 0 0 1 1.4-.4 3.4 3.4 0 0 1 .6-.1 8.9 8.9 0 0 1 1.1.2 2.28 2.28 0 0 1 1.2.6 2.1 2.1 0 0 1 .4.5c.2.3.3.7.5 1 0 .1 0 .1.1.2l.2.7h-.1v.4a1.8 1.8 0 0 1-.1 1.2l-.5 1.3a2.16 2.16 0 0 0-.2.5.6.6 0 0 1-.2.5.3.3 0 0 0-.1.2v.5a.67.67 0 0 0 .4.7 10.46 10.46 0 0 0 1.1.5 3.42 3.42 0 0 1 1.6 1.1l.8.9c.1.1.2.2.3 0a.32.32 0 0 1 .5 0l.1.1c.2.1.2.1 0 .3a2 2 0 0 0-.2.3.27.27 0 0 0 0 .3 3.3 3.3 0 0 1 .3.5 1.9 1.9 0 0 0 .7.5l1.3.9a.27.27 0 0 0 .1 0c.3 0 .6.1.9.2a.4.4 0 0 1 .4.3.9.9 0 0 0 .5.6 2.82 2.82 0 0 0 1.2.4 1.34 1.34 0 0 1 .5.2.64.64 0 0 1 .3.3 1.6 1.6 0 0 0 .6.8.3.3 0 0 1 .1.1.6.6 0 0 0 .7.3 2.22 2.22 0 0 1 .6 0 .7.7 0 0 1 .6.5l.3 1.18.2.7.3 1.1a.67.67 0 0 0 .1.3 1.27 1.27 0 0 1 .2 1.2 2.38 2.38 0 0 0 0 .5v2.6a5.72 5.72 0 0 1-.1.8c-.1.3-.2.54-.2.8a3.74 3.74 0 0 1-.6 1.4.6.6 0 0 1-.2.2 4 4 0 0 1-2.3.4 1.35 1.35 0 0 0-.5.1 4.18 4.18 0 0 1-.8.1 1.6 1.6 0 0 0-.4.1 4.46 4.46 0 0 1-1.9.2h-.6a4.52 4.52 0 0 1-.7-.06c-.2 0-.3 0-.2.2a1.1 1.1 0 0 1-.1.85.6.6 0 0 0 0 .28 2 2 0 0 1-.4 1.1.45.45 0 0 0-.1.2 2.86 2.86 0 0 1-.6 1.1 2.45 2.45 0 0 0-.35.7 1.68 1.68 0 0 1-.5.7 2.55 2.55 0 0 0-.4.5c-.2.3-.3.7-.5 1a2.4 2.4 0 0 1-.2.2 5.12 5.12 0 0 1-.3.4.85.85 0 0 1-.3.2 1.28 1.28 0 0 0-.7.7l-.8 1.8a1 1 0 0 0 0 .4 1.7 1.7 0 0 1-.3 1 .35.35 0 0 0 0 .5.7.7 0 0 1 .15.2.3.3 0 0 0 .3.2 2.07 2.07 0 0 1 1 .4.26.26 0 0 1 .1.1 1 1 0 0 0 .46.4 2.1 2.1 0 0 1 .36.3c.8.8 1.7 1.7 2.7 2.5.4.3.8.8 1.2 1.2s1 .8 1.5 1.2a1.34 1.34 0 0 0 .6.2l1.1.1a.68.68 0 0 1 .7.9c0 .2 0 .4-.1.6a3.12 3.12 0 0 0 0 .55 1.57 1.57 0 0 0 .15-.3l.6-1.8a2.6 2.6 0 0 1 .5-.3.16.16 0 0 1 .3 0 4.34 4.34 0 0 1 .3.6.6.6 0 0 1 0 .4 3.15 3.15 0 0 1-.2.6 27.08 27.08 0 0 0-1.3 3.6c-.2.68-.5 1.3-.74 1.9a3.17 3.17 0 0 1-.4.7.68.68 0 0 1-.4.2 3.06 3.06 0 0 1-.6.1.56.56 0 0 1-.3 0 .14.14 0 0 1 0-.2.82.82 0 0 0 .24-.75 3.53 3.53 0 0 0-.1-1.5 3.6 3.6 0 0 0-.2-.9 4 4 0 0 1-.1-.43 2.48 2.48 0 0 0-.6-1.15c-.4-.5-.7-1-1-1.4a7.47 7.47 0 0 0-2.2-1.7l-1.8-.87-1.4-.7h-.2a.2.2 0 0 0-.3.1l-.6.9a.2.2 0 0 1-.3.1c-.07 0-.1-.07-.2-.1s-.3 0-.3.14l-.4 2s-.27 1.3-.37 2a10 10 0 0 0-.1 1.2 16 16 0 0 0 0 1.9 12.56 12.56 0 0 0 .38 1.5 6.58 6.58 0 0 1 .1.7c0 .3 0 .3.3.3a2.15 2.15 0 0 1 .3 0 .23.23 0 0 1 .1.4l-.3.7a.3.3 0 0 1-.4.24H355a11.18 11.18 0 0 1-1.4 0 2.85 2.85 0 0 1-1.2-.27 2.1 2.1 0 0 1-.4-.3.18.18 0 0 1 0-.3.3.3 0 0 0 .2-.3.4.4 0 0 1 .5-.5.46.46 0 0 0 .2 0 5 5 0 0 1 1-.3 3.42 3.42 0 0 0 .5-.3 8 8 0 0 1 .9-.4 2.88 2.88 0 0 0 1-.5 2.7 2.7 0 0 0 .8-1.1l.2-.5a4.32 4.32 0 0 0 .2-.7 6 6 0 0 0 .07-1.6c0-.65-.1-1.3-.2-1.95s-.1-1.17-.2-1.7a.16.16 0 0 0-.2-.17l-.7.2c-.3.1-.4 0-.5-.3a.63.63 0 0 0-.3-.4.62.62 0 0 1-.4-.5 3.16 3.16 0 0 0-.1-.5 12.13 12.13 0 0 1-.4-2.1v-.3a4.43 4.43 0 0 1 .2-1.4c.2-.75.4-1.47.63-2.2.1-.3.3-.6.4-.9s.24-.86.34-1.3a5.44 5.44 0 0 1 .5-1.4c0-.1 0-.2.1-.3a2.44 2.44 0 0 1 .2-.3c.1-.17.1-.2-.06-.3a5.3 5.3 0 0 1-.5-.3 1.38 1.38 0 0 0-.3-.2.6.6 0 0 1-.4-.9 7 7 0 0 1 .6-1.3 5 5 0 0 1 .8-.9 1.32 1.32 0 0 0 .4-.5c.1-.3.3-.6.37-.9l.2-1.1s.1-.6.2-1a.7.7 0 0 0 0-.6 3.34 3.34 0 0 1-.4-1.5c0-.4-.1-.8-.16-1.2l-.2-2.44c0-.4-.1-.7-.1-1v-.5a4.78 4.78 0 0 0 0-1.3 7.37 7.37 0 0 1-.1-1.2 7.1 7.1 0 0 1 .1-1.3v-.3l.1-.5a.67.67 0 0 0 0-.2 4.13 4.13 0 0 1 .3-1.5 6.86 6.86 0 0 0 .2-1.26v-.9a.36.36 0 0 1 .1-.2.57.57 0 0 0-.1-.9 1.23 1.23 0 0 1-.3-.4 4.83 4.83 0 0 0-.5-.7.35.35 0 0 0-.28-.1 2.24 2.24 0 0 1-1.5-.2.57.57 0 0 1-.3-.57.92.92 0 0 1 0-.22c.06-.3.1-.3-.2-.4a.3.3 0 0 1-.16-.4.16.16 0 0 0-.1-.2.22.22 0 0 1 0-.4z" data-name="4oE5El.tif"/>
  </g>
</svg>
