<svg xmlns="http://www.w3.org/2000/svg" viewBox="0 0 318.5 295.7">
  <g data-name="Layer 1" style="isolation:isolate">
    <path fill="#00a651" d="M289.8 41v199.2a25.5 25.5 0 0 1-6.7 17 29.6 29.6 0 0 1-22 9.7H40a30 30 0 0 1-11.5-4c-8.5-5-13.8-13-13.8-23V41a25.5 25.5 0 0 1 6.5-17 29.5 29.5 0 0 1 22-9.6h221.4a30 30 0 0 1 11.5 3.8c9 4.8 14 13.2 14 22.8z"/>
    <text fill="#010101" transform="translate(48.07 91.3)" font-size="10" font-family="Roboto Slab">
      DOG PEOPLE
    </text>
    <text fill="#010101" transform="translate(171.57 91.3)" font-size="10" font-family="Roboto Slab">
      C<tspan x="6.5" y="0">A</tspan><tspan x="12.9" y="0">T PEOPLE</tspan>
    </text>
    <path fill="#231f20" d="M204.8 202.5A12.7 12.7 0 0 1 192 215v-12.5l-12-3.3a12.7 12.7 0 0 1 24.8 3.3z"/>
    <path fill="#fff200" d="M192 202.5V215a12.7 12.7 0 0 1-12-15.7z"/>
    <text fill="#010101" transform="translate(213.47 196.47)" font-size="7" font-family="Roboto Slab">
      27% <tspan x="14.4" y="0">m</tspan><tspan x="21" y="0">o</tspan><tspan x="25" y="0">r</tspan><tspan x="27.8" y="0">e li</tspan><tspan x="37.8" y="0">k</tspan><tspan x="42" y="0">ely </tspan><tspan x="53.7" y="0">t</tspan><tspan x="56.2" y="0">o </tspan><tspan x="0" y="8.4">p</tspan><tspan x="4.2" y="8.4">r</tspan><tspan x="7.1" y="8.4">e</tspan><tspan x="10.8" y="8.4">f</tspan><tspan x="13.2" y="8.4">er i</tspan><tspan x="23.9" y="8.4">n</tspan><tspan x="28.4" y="8.4">dividual </tspan><tspan x="0" y="16.8">competition </tspan><tspan x="42.2" y="16.8">o</tspan><tspan x="46.1" y="16.8">v</tspan><tspan x="50" y="16.8">er </tspan><tspan x="0" y="25.2">team competition</tspan>
    </text>
    <path fill="#fff200" d="M68.7 189.8V215A12.7 12.7 0 0 1 56 203.4v-.8a12.7 12.7 0 0 1 .5-3.2 12.5 12.5 0 0 1 1-3 12.7 12.7 0 0 1 11.2-6.5z"/>
    <path fill="#231f20" d="M81.4 202.5A12.7 12.7 0 0 1 68.7 215v-25a12.7 12.7 0 0 1 12.7 12.7z"/>
    <text fill="#010101" transform="translate(90.04 196.47)" font-size="7" font-family="Roboto Slab">
      S<tspan x="4.3" y="0">p</tspan><tspan x="8.5" y="0">lit </tspan><tspan x="17.3" y="0">ev</tspan><tspan x="24.9" y="0">enly on </tspan><tspan x="0" y="8.4">w</tspan><tspan x="5.8" y="8.4">h</tspan><tspan x="10.3" y="8.4">et</tspan><tspan x="16.6" y="8.4">h</tspan><tspan x="21.1" y="8.4">er t</tspan><tspan x="32" y="8.4">h</tspan><tspan x="36.5" y="8.4">e</tspan><tspan x="40.3" y="8.4">y p</tspan><tspan x="50.2" y="8.4">r</tspan><tspan x="53" y="8.4">e</tspan><tspan x="56.8" y="8.4">f</tspan><tspan x="59.2" y="8.4">er </tspan><tspan x="0" y="16.8">i</tspan><tspan x="2.3" y="16.8">n</tspan><tspan x="6.8" y="16.8">dividual or team </tspan><tspan x="0" y="25.2">competition</tspan>
    </text>
    <path fill="#231f20" d="M82 168a12.7 12.7 0 0 1-13 12.8V168l-11 6.2a12.7 12.7 0 1 1 23.7-6z"/>
    <path fill="#fff200" d="M69.2 168v12.7a12.7 12.7 0 0 1-11-6.5z"/>
    <text fill="#010101" transform="translate(90.54 162.17)" font-size="7" font-family="Roboto Slab">
      17% <tspan x="13.5" y="0">m</tspan><tspan x="20.1" y="0">o</tspan><tspan x="24" y="0">r</tspan><tspan x="26.8" y="0">e li</tspan><tspan x="36.8" y="0">k</tspan><tspan x="41" y="0">ely </tspan><tspan x="52.7" y="0">t</tspan><tspan x="55.2" y="0">o </tspan><tspan x="0" y="8.4">h</tspan><tspan x="4.5" y="8.4">a</tspan><tspan x="8.3" y="8.4">v</tspan><tspan x="12.2" y="8.4">e com</tspan><tspan x="32" y="8.4">p</tspan><tspan x="36.2" y="8.4">leted a </tspan><tspan x="0" y="16.8">graduate deg</tspan><tspan x="43" y="16.8">r</tspan><tspan x="45.8" y="16.8">ee</tspan>
    </text>
    <path fill="#231f20" d="M204.8 168a12.7 12.7 0 0 1-12.7 12.7V168l-11 6.2a12.7 12.7 0 1 1 24-6z"/>
    <path fill="#fff200" d="M192 168v12.7a12.7 12.7 0 0 1-11-6.5z"/>
    <text fill="#010101" transform="translate(213.47 162.17)" font-size="7" font-family="Roboto Slab">
      14% <tspan x="13.7" y="0">m</tspan><tspan x="20.3" y="0">o</tspan><tspan x="24.2" y="0">r</tspan><tspan x="27" y="0">e li</tspan><tspan x="37" y="0">k</tspan><tspan x="41.2" y="0">ely </tspan><tspan x="52.9" y="0">t</tspan><tspan x="55.4" y="0">o </tspan><tspan x="0" y="8.4">cli</tspan><tspan x="8.3" y="8.4">n</tspan><tspan x="12.8" y="8.4">g </tspan><tspan x="18.4" y="8.4">t</tspan><tspan x="20.9" y="8.4">o frie</tspan><tspan x="38.1" y="8.4">n</tspan><tspan x="42.5" y="8.4">ds at </tspan><tspan x="0" y="16.8">a pa</tspan><tspan x="13.7" y="16.8">r</tspan><tspan x="16.7" y="16.8">ty</tspan>
    </text>
    <text fill="#010101" transform="translate(93.54 122.89)" font-size="7" font-family="Roboto Slab">
      15% <tspan x="13.3" y="0">m</tspan><tspan x="19.9" y="0">o</tspan><tspan x="23.8" y="0">r</tspan><tspan x="26.6" y="0">e li</tspan><tspan x="36.6" y="0">k</tspan><tspan x="40.8" y="0">ely </tspan><tspan x="52.5" y="0">t</tspan><tspan x="55" y="0">o </tspan><tspan x="0" y="8.4">be ext</tspan><tspan x="20" y="8.4">r</tspan><tspan x="22.8" y="8.4">o</tspan><tspan x="26.7" y="8.4">v</tspan><tspan x="30.5" y="8.4">e</tspan><tspan x="34.3" y="8.4">r</tspan><tspan x="37.3" y="8.4">ts</tspan>
    </text>
    <text fill="#010101" transform="translate(216.47 122.89)" font-size="7" font-family="Roboto Slab">
      11% <tspan x="12.5" y="0">m</tspan><tspan x="19.1" y="0">o</tspan><tspan x="23" y="0">r</tspan><tspan x="25.8" y="0">e li</tspan><tspan x="35.8" y="0">k</tspan><tspan x="40" y="0">ely </tspan><tspan x="51.7" y="0">t</tspan><tspan x="54.2" y="0">o </tspan><tspan x="0" y="8.4">be int</tspan><tspan x="18.9" y="8.4">r</tspan><tspan x="21.8" y="8.4">o</tspan><tspan x="25.6" y="8.4">v</tspan><tspan x="29.5" y="8.4">e</tspan><tspan x="33.3" y="8.4">r</tspan><tspan x="36.3" y="8.4">ts</tspan>
    </text>
    <path fill="#fff200" d="M69.2 236v12.6a12.7 12.7 0 0 1-12.6-11.8v-1a12.7 12.7 0 0 1 .4-3 12.6 12.6 0 0 1 2.3-4.7z"/>
    <path fill="#231f20" d="M82 236a12.7 12.7 0 0 1-13 12.5V236l-10-8a12.7 12.7 0 0 1 22.7 8z"/>
    <text fill="#010101" transform="translate(90.54 235.95)" font-size="7" font-family="Roboto Slab">
      36% <tspan x="14.4" y="0">m</tspan><tspan x="21" y="0">o</tspan><tspan x="24.9" y="0">r</tspan><tspan x="27.8" y="0">e li</tspan><tspan x="37.8" y="0">k</tspan><tspan x="42" y="0">ely </tspan><tspan x="53.6" y="0">t</tspan><tspan x="56.1" y="0">o </tspan><tspan x="0" y="8.4">be </tspan><tspan x="9.6" y="8.4">v</tspan><tspan x="13.4" y="8.4">e</tspan><tspan x="17.2" y="8.4">r</tspan><tspan x="20.1" y="8.4">y acti</tspan><tspan x="38.3" y="8.4">v</tspan><tspan x="42.2" y="8.4">e </tspan><tspan x="0" y="16.8">outdoors</tspan>
    </text>
    <path d="M70 109h-1a11 11 0 0 0-4 1 8 8 0 0 0-3.7 3.3 13 13 0 0 0-1.2 4v3.7a19.2 19.2 0 0 0 3 8 6 6 0 0 1 1 2.7 9.8 9.8 0 0 1-1 5.6.4.4 0 0 0 0 .5 22.2 22.2 0 0 0 9 7c1 .5 1 .7 2 1l1-4a6 6 0 0 1 1-3 1.5 1.5 0 0 0 .5-1v-.8a1.2 1.2 0 0 1 .6-1.3 3.3 3.3 0 0 1 1.3-.4h2a3 3 0 0 0 1.6-.3 1 1 0 0 0 .5-1.6l-.3-.4a.8.8 0 0 1 .5-1.2 5.5 5.5 0 0 0 .7-.2 1 1 0 0 0 0-1.3c0-.2 0-.3.3-.4a.7.7 0 0 0 .3-1 1 1 0 0 1 .7-2 1 1 0 0 0 1-.8v-.3l-.6-1-2-2.6a1.5 1.5 0 0 1 0-2 1.3 1.3 0 0 0 0-1l-1-4.4a7.5 7.5 0 0 0-2.7-3 15.6 15.6 0 0 0-7-3c-.4 0-1 0-1.6-.2z"/>
    <path fill="none" stroke="#000" stroke-miterlimit="10" d="M69.2 103.3l1.5-1.4 1.3 1"/>
    <path fill="none" stroke="#000" stroke-miterlimit="10" d="M70.6 106.8v-5"/>
    <path fill="none" stroke="#000" stroke-miterlimit="10" d="M59.8 106.7l.5-2 2 .5"/>
    <path fill="none" stroke="#000" stroke-miterlimit="10" d="M62.7 109l-2.4-4.3"/>
    <path fill="none" stroke="#000" stroke-miterlimit="10" d="M54.4 115l-1-1.8 1.7-1"/>
    <path fill="none" stroke="#000" stroke-miterlimit="10" d="M58 114.7l-4.6-1.4"/>
    <path fill="none" stroke="#000" stroke-miterlimit="10" d="M78 105.2l2-.5.5 2"/>
    <path fill="none" stroke="#000" stroke-miterlimit="10" d="M77.5 109l2.5-4.3"/>
    <path d="M193 109h-1.2a.8.8 0 0 1-.2 0 11 11 0 0 0-4 1 8 8 0 0 0-3.6 3.4 13 13 0 0 0-1.2 3.8l-.3 1.7v2a19.2 19.2 0 0 0 3 8 6 6 0 0 1 .8 2 9.8 9.8 0 0 1-1 5.6.4.4 0 0 0 0 .6 22.2 22.2 0 0 0 9 7l1.8.7h1l.8-3.8a6 6 0 0 1 1.3-3 1.5 1.5 0 0 0 .4-1.3v-.8a1.2 1.2 0 0 1 .7-1.2 3.3 3.3 0 0 1 1.3 0h1.6a3 3 0 0 0 1.7 0 1 1 0 0 0 .4-1.8l-.2-.5a.8.8 0 0 1 .3-1 5.5 5.5 0 0 0 .7-.4 1 1 0 0 0 0-1l.2-.4a.7.7 0 0 0 .2-1 1 1 0 0 1 1-1h.3a1 1 0 0 0 1-1v-.4l-.6-1c-.5-1-1-2-1.6-2.7a1.5 1.5 0 0 1 0-2 1.3 1.3 0 0 0 0-1l-1-4.4a7.5 7.5 0 0 0-2.5-4 15.6 15.6 0 0 0-6.8-3l-1.8-.2z" data-name="kd8E2i.tif"/>
    <path fill="none" stroke="#000" stroke-miterlimit="10" d="M195 105.3l-1.5 1.5-1.4-1.4"/>
    <path fill="none" stroke="#000" stroke-miterlimit="10" d="M193.5 102v4.8"/>
    <path fill="none" stroke="#000" stroke-miterlimit="10" d="M186 107l-.4 2-2-.6"/>
    <path fill="none" stroke="#000" stroke-miterlimit="10" d="M183 104.7l2.6 4.2"/>
    <path fill="none" stroke="#000" stroke-miterlimit="10" d="M180 113l1 1.7-1.8 1"/>
    <path fill="none" stroke="#000" stroke-miterlimit="10" d="M176.3 113.3l4.7 1.4"/>
    <path fill="none" stroke="#000" stroke-miterlimit="10" d="M202.4 108.4l-2 .5-.5-2"/>
    <path fill="none" stroke="#000" stroke-miterlimit="10" d="M203 104.7l-2.6 4.2"/>
    <text fill="#231f20" transform="translate(33.11 59.49)" font-size="7.5" font-family="Roboto Slab">
      Both consider t<tspan x="54.2" y="0">h</tspan><tspan x="59" y="0">emsel</tspan><tspan x="80.3" y="0">v</tspan><tspan x="84.5" y="0">es c</tspan><tspan x="98.2" y="0">l</tspan><tspan x="100.5" y="0">ose </tspan><tspan x="114.5" y="0">t</tspan><tspan x="117.1" y="0">o natu</tspan><tspan x="139.5" y="0">r</tspan><tspan x="142.5" y="0">e a</tspan><tspan x="152.5" y="0">n</tspan><tspan x="157.3" y="0">d a</tspan><tspan x="167.8" y="0">r</tspan><tspan x="170.8" y="0">e ge</tspan><tspan x="185" y="0">n</tspan><tspan x="189.8" y="0">erally optimists.</tspan>
    </text>
    <path fill="none" stroke="#231f20" stroke-miterlimit="10" d="M98 93.6H46V267"/>
    <path fill="none" stroke="#231f20" stroke-miterlimit="10" d="M221 93.6h-51V267"/>
    <rect width="139.5" height="24" x="140.2" y="24.1" fill="#231f20" rx="10.1" ry="10.1"/>
    <text fill="#fff" transform="translate(150.86 41.64)" font-size="14" font-family="Roboto Slab">
      PERSO<tspan x="45.7" y="0">N</tspan><tspan x="55.8" y="0">ALI</tspan><tspan x="78.8" y="0">T</tspan><tspan x="87.6" y="0">Y</tspan>
    </text>
  </g>
</svg>
