<svg xmlns="http://www.w3.org/2000/svg" viewBox="0 0 322.6 256.8">
  <g data-name="Layer 1" style="isolation:isolate">
    <path fill="#008d4c" d="M294 43.8v155a32 32 0 0 1-6.7 19.6c-4.6 6-11.4 9.7-19 9.7H37a22.8 22.8 0 0 1-9-3c-8-5-13.4-14.6-13.4-26V44a32 32 0 0 1 6.6-19.7c4.7-6 11.5-9.7 19-9.7h231.3a23 23 0 0 1 9 3.2c8 5 13.4 14.8 13.4 26z"/>
    <text fill="#010101" transform="translate(45.22 91.29)" font-size="10" font-family="Roboto Slab">
      DOG PEOPLE
    </text>
    <text fill="#010101" transform="translate(168.72 91.29)" font-size="10" font-family="Roboto Slab">
      C<tspan x="6.5" y="0">A</tspan><tspan x="12.9" y="0">T PEOPLE</tspan>
    </text>
    <text fill="#010101" transform="translate(87.3 149.69)" font-size="7" font-family="Roboto Slab">
      Mo<tspan x="10.4" y="0">r</tspan><tspan x="13.3" y="0">e li</tspan><tspan x="23.3" y="0">k</tspan><tspan x="27.5" y="0">ely </tspan><tspan x="39.1" y="0">t</tspan><tspan x="41.6" y="0">o think</tspan><tspan x="0" y="8.4">z</tspan><tspan x="3.6" y="8.4">oos a</tspan><tspan x="20.7" y="8.4">r</tspan><tspan x="23.5" y="8.4">e a hap</tspan><tspan x="47.2" y="8.4">p</tspan><tspan x="51.4" y="8.4">y </tspan><tspan x="57.1" y="8.4">p</tspan><tspan x="61.3" y="8.4">lace</tspan>
    </text>
    <path fill="#231f20" d="M78.6 184A12.7 12.7 0 0 1 66 196.8V184l8.6-9.2a12.6 12.6 0 0 1 4 9.3z"/>
    <path fill="#fff200" d="M74.6 174.8L66 184v12.7A12.7 12.7 0 0 1 53.3 185v-1a12.7 12.7 0 0 1 .4-3v-.2a12.7 12.7 0 0 1 21-6z"/>
    <text fill="#010101" transform="translate(87.3 178.08)" font-size="7" font-family="Roboto Slab">
      67% <tspan x="14.5" y="0">m</tspan><tspan x="21.1" y="0">o</tspan><tspan x="25" y="0">r</tspan><tspan x="27.8" y="0">e li</tspan><tspan x="37.8" y="0">k</tspan><tspan x="42" y="0">ely </tspan><tspan x="53.7" y="0">t</tspan><tspan x="56.2" y="0">o </tspan><tspan x="0" y="8.4">call animal cont</tspan><tspan x="53.6" y="8.4">ro</tspan><tspan x="60.3" y="8.4">l if </tspan><tspan x="0" y="16.8">t</tspan><tspan x="2.6" y="16.8">h</tspan><tspan x="7" y="16.8">e</tspan><tspan x="10.8" y="16.8">y happen upon </tspan><tspan x="0" y="25.2">str</tspan><tspan x="9" y="25.2">a</tspan><tspan x="12.8" y="25.2">y kittens</tspan>
    </text>
    <path fill="#231f20" d="M78.6 115.3A12.7 12.7 0 0 1 66 128v-12.7l-11 6.2a12.7 12.7 0 1 1 23.6-6.2z"/>
    <path fill="#fff200" d="M66 115.3V128a12.7 12.7 0 0 1-11-6.5z"/>
    <text fill="#010101" transform="translate(87.3 109.39)" font-size="7" font-family="Roboto Slab">
      11% <tspan x="12.5" y="0">m</tspan><tspan x="19.1" y="0">o</tspan><tspan x="23" y="0">r</tspan><tspan x="25.8" y="0">e li</tspan><tspan x="35.8" y="0">k</tspan><tspan x="40" y="0">ely </tspan><tspan x="51.7" y="0">t</tspan><tspan x="54.2" y="0">o </tspan><tspan x="0" y="8.4">suppo</tspan><tspan x="20.2" y="8.4">r</tspan><tspan x="23.2" y="8.4">t c</tspan><tspan x="31.3" y="8.4">l</tspan><tspan x="33.4" y="8.4">oni</tspan><tspan x="44.2" y="8.4">n</tspan><tspan x="48.6" y="8.4">g, but </tspan><tspan x="0" y="16.8">only for animals </tspan><tspan x="0" y="25.2">or pets</tspan>
    </text>
    <text fill="#010101" transform="translate(211.69 149.69)" font-size="7" font-family="Roboto Slab">
      21% <tspan x="13.5" y="0">m</tspan><tspan x="20.1" y="0">o</tspan><tspan x="24" y="0">r</tspan><tspan x="26.8" y="0">e li</tspan><tspan x="36.8" y="0">k</tspan><tspan x="41" y="0">ely </tspan><tspan x="52.7" y="0">t</tspan><tspan x="55.2" y="0">o </tspan><tspan x="0" y="8.4">r</tspan><tspan x="2.8" y="8.4">escue str</tspan><tspan x="32.7" y="8.4">a</tspan><tspan x="36.5" y="8.4">y kittens</tspan>
    </text>
    <path fill="#fff200" d="M190.3 184v12.7a12.7 12.7 0 0 1-12.6-11.8v-1a12.7 12.7 0 0 1 .4-3v-.5a12.6 12.6 0 0 1 2.7-4.6z"/>
    <path fill="#231f20" d="M203 184a12.7 12.7 0 0 1-12.6 12.7V184l-10-7.8a12.7 12.7 0 0 1 22.6 8z"/>
    <text fill="#010101" transform="translate(211.69 184.08)" font-size="7" font-family="Roboto Slab">
      39% <tspan x="14.4" y="0">m</tspan><tspan x="21" y="0">o</tspan><tspan x="25" y="0">r</tspan><tspan x="27.8" y="0">e li</tspan><tspan x="37.8" y="0">k</tspan><tspan x="42" y="0">ely </tspan><tspan x="53.7" y="0">t</tspan><tspan x="56.2" y="0">o </tspan><tspan x="0" y="8.4">r</tspan><tspan x="2.8" y="8.4">ent t</tspan><tspan x="18" y="8.4">h</tspan><tspan x="22.4" y="8.4">eir </tspan><tspan x="33.1" y="8.4">h</tspan><tspan x="37.6" y="8.4">o</tspan><tspan x="41.6" y="8.4">m</tspan><tspan x="48.1" y="8.4">e</tspan>
    </text>
    <path fill="#231f20" d="M203 149.7a12.7 12.7 0 0 1-12.7 12.7v-12.7L178 152a12.4 12.4 0 0 1-.3-2.3 12.7 12.7 0 0 1 .4-3.2l.5-.6a12.7 12.7 0 0 1 24.8 3.4z"/>
    <path fill="#fff200" d="M190.3 149.7v12.7a12.7 12.7 0 0 1-12.4-10.2z"/>
    <path d="M74.5 150H70v12.4h-8V150h-4.6v-.2l5.5-7 3-4v-.2.6l8 10.6z"/>
    <path fill="#231f20" d="M203 115.3a12.7 12.7 0 0 1-12.6 12.7v-12.7l-11.2-6a12.7 12.7 0 0 1 23.8 6z"/>
    <path fill="#fff200" d="M190.3 115.3V128a12.7 12.7 0 0 1-12.6-12v-.7a12.7 12.7 0 0 1 .4-3.2 12.5 12.5 0 0 1 1.6-2.5z"/>
    <text fill="#010101" transform="translate(211.69 106.29)" font-size="7" font-family="Roboto Slab">
      33% <tspan x="14.3" y="0">m</tspan><tspan x="20.9" y="0">o</tspan><tspan x="24.8" y="0">r</tspan><tspan x="27.6" y="0">e li</tspan><tspan x="37.6" y="0">k</tspan><tspan x="41.8" y="0">ely </tspan><tspan x="53.5" y="0">t</tspan><tspan x="56" y="0">o </tspan><tspan x="0" y="8.4">p</tspan><tspan x="4.2" y="8.4">r</tspan><tspan x="7.1" y="8.4">e</tspan><tspan x="10.8" y="8.4">f</tspan><tspan x="13.2" y="8.4">er taki</tspan><tspan x="34.6" y="8.4">n</tspan><tspan x="39.1" y="8.4">g ca</tspan><tspan x="52.4" y="8.4">r</tspan><tspan x="55.2" y="8.4">e of</tspan><tspan x="0" y="16.8">a frie</tspan><tspan x="17" y="16.8">n</tspan><tspan x="21.5" y="16.8">d</tspan><tspan x="25.7" y="16.8">’</tspan><tspan x="26.9" y="16.8">s kids rat</tspan><tspan x="57.6" y="16.8">h</tspan><tspan x="62" y="16.8">er </tspan><tspan x="0" y="25.2">than a frie</tspan><tspan x="34.2" y="25.2">n</tspan><tspan x="38.7" y="25.2">d</tspan><tspan x="42.9" y="25.2">’</tspan><tspan x="44" y="25.2">s dogs</tspan>
    </text>
    <text fill="#231f20" transform="translate(169.76 59.48)" font-size="7.5" font-family="Roboto Slab">
      Both talk <tspan x="34.3" y="0">t</tspan><tspan x="36.9" y="0">o animals of all ki</tspan><tspan x="100.2" y="0">n</tspan><tspan x="105" y="0">ds.</tspan>
    </text>
    <path fill="none" stroke="#231f20" stroke-miterlimit="10" d="M95.2 93.5h-51V228"/>
    <path fill="none" stroke="#231f20" stroke-miterlimit="10" d="M217.8 93.5h-50V228"/>
    <rect width="183.2" height="24" x="100.8" y="24" fill="#231f20" rx="10.1" ry="10.1"/>
    <text fill="#fff" transform="translate(110.75 41.63)" font-size="14" font-family="Roboto Slab">
      SPEAKING OF P<tspan x="105.6" y="0">E</tspan><tspan x="114.7" y="0">T</tspan><tspan x="123.4" y="0">S</tspan>
    </text>
  </g>
</svg>
