<svg xmlns="http://www.w3.org/2000/svg" data-name="Layer 1" viewBox="0 0 337.5 390.5">
  <path fill="#00aeef" d="M13 75.2h311.4v315.3H13z"/>
  <text fill="#010101" transform="translate(50.96 201.93)" font-size="10" font-family="Roboto Slab">
    DOG PEOPLE
  </text>
  <text fill="#010101" transform="translate(174.46 201.93)" font-size="10" font-family="Roboto Slab">
    C<tspan x="6.5" y="0">A</tspan><tspan x="12.9" y="0">T PEOPLE</tspan>
  </text>
  <path fill="#231f20" d="M207.7 260.7a12.7 12.7 0 0 1-12.7 12.7v-12.6l-7.2 10.4a12.7 12.7 0 1 1 20-10.4z"/>
  <path fill="#fff200" d="M195 260.7v12.7a12.6 12.6 0 0 1-7.2-2.2z"/>
  <text fill="#010101" transform="translate(216.36 257.86)" font-size="7" font-family="Roboto Slab">
    7% <tspan x="10.6" y="0">m</tspan><tspan x="17.2" y="0">o</tspan><tspan x="21.1" y="0">r</tspan><tspan x="23.9" y="0">e li</tspan><tspan x="33.9" y="0">k</tspan><tspan x="38.1" y="0">ely </tspan><tspan x="49.8" y="0">t</tspan><tspan x="52.3" y="0">o </tspan><tspan x="0" y="8.4">be A</tspan><tspan x="14.7" y="8.4">n</tspan><tspan x="19.1" y="8.4">driod users</tspan>
  </text>
  <path fill="#231f20" d="M84.3 226.4A12.7 12.7 0 0 1 71.6 239v-12.6l-11 6a12.7 12.7 0 1 1 23.7-6z"/>
  <path fill="#fff200" d="M71.6 226.4V239a12.7 12.7 0 0 1-11-6.5z"/>
  <text fill="#010101" transform="translate(92.93 224.47)" font-size="7" font-family="Roboto Slab">
    12% <tspan x="13.5" y="0">m</tspan><tspan x="20.1" y="0">o</tspan><tspan x="24" y="0">r</tspan><tspan x="26.8" y="0">e li</tspan><tspan x="36.8" y="0">k</tspan><tspan x="41" y="0">ely </tspan><tspan x="52.7" y="0">t</tspan><tspan x="55.2" y="0">o </tspan><tspan x="0" y="8.4">be ea</tspan><tspan x="17.2" y="8.4">r</tspan><tspan x="20" y="8.4">ly adop</tspan><tspan x="44.1" y="8.4">t</tspan><tspan x="46.6" y="8.4">ors</tspan>
  </text>
  <path fill="#fff200" d="M72 294.2V307a12.7 12.7 0 0 1-12.5-12v-.7a12.7 12.7 0 0 1 .4-3.2 12.6 12.6 0 0 1 2-4.4z"/>
  <path fill="#231f20" d="M84.8 294.2A12.7 12.7 0 0 1 72 307v-13l-9.8-7.8a12.7 12.7 0 0 1 22.6 7.8z"/>
  <text fill="#010101" transform="translate(93.43 288.23)" font-size="7" font-family="Roboto Slab">
    36% <tspan x="14.4" y="0">m</tspan><tspan x="21" y="0">o</tspan><tspan x="24.9" y="0">r</tspan><tspan x="27.8" y="0">e li</tspan><tspan x="37.8" y="0">k</tspan><tspan x="42" y="0">ely </tspan><tspan x="53.6" y="0">t</tspan><tspan x="56.1" y="0">o </tspan><tspan x="0" y="8.4">use a popular so</tspan><tspan x="53.8" y="8.4">n</tspan><tspan x="58.2" y="8.4">g</tspan><tspan x="0" y="16.8">as a ri</tspan><tspan x="19.9" y="16.8">n</tspan><tspan x="24.4" y="16.8">g</tspan><tspan x="28.4" y="16.8">t</tspan><tspan x="30.9" y="16.8">o</tspan><tspan x="34.8" y="16.8">n</tspan><tspan x="39.3" y="16.8">e</tspan>
  </text>
  <path d="M203.5 222.4H199v12.4h-8v-12.2h-4.5v-.3l5.4-7 3-4 .2.5 8 10.6z"/>
  <text fill="#010101" transform="translate(93.43 258.76)" font-size="7" font-family="Roboto Slab">
    23% <tspan x="14.4" y="0">m</tspan><tspan x="21" y="0">o</tspan><tspan x="24.9" y="0">r</tspan><tspan x="27.7" y="0">e li</tspan><tspan x="37.7" y="0">k</tspan><tspan x="41.9" y="0">ely </tspan><tspan x="53.6" y="0">t</tspan><tspan x="56.1" y="0">o </tspan><tspan x="0" y="8.4">be iP</tspan><tspan x="16.3" y="8.4">h</tspan><tspan x="20.8" y="8.4">o</tspan><tspan x="24.7" y="8.4">n</tspan><tspan x="29.2" y="8.4">e users</tspan>
  </text>
  <path fill="#231f20" d="M84.8 260.8A12.7 12.7 0 0 1 72 273.4v-12.6l-12.3 2.4a12.4 12.4 0 0 1-.3-2.4 12.7 12.7 0 0 1 .4-3.2l.2-.6a12.7 12.7 0 0 1 24.8 3.8z"/>
  <path fill="#fff200" d="M72 260.8v12.6a12.7 12.7 0 0 1-12.3-10.2z"/>
  <path fill="#231f20" d="M85 328.2a12.7 12.7 0 0 1-12.7 12.6v-12.6l-11-6a12.7 12.7 0 0 1 23.7 6z"/>
  <path fill="#fff200" d="M72.3 328.2v12.6A12.7 12.7 0 0 1 59.7 329v-1a12.7 12.7 0 0 1 .4-3 12.5 12.5 0 0 1 1.4-3z"/>
  <text fill="#010101" transform="translate(93.67 319.15)" font-size="7" font-family="Roboto Slab">
    33% <tspan x="14.3" y="0">m</tspan><tspan x="20.9" y="0">o</tspan><tspan x="24.8" y="0">r</tspan><tspan x="27.6" y="0">e li</tspan><tspan x="37.6" y="0">k</tspan><tspan x="41.8" y="0">ely </tspan><tspan x="53.5" y="0">t</tspan><tspan x="56" y="0">o </tspan><tspan x="0" y="8.4">use a pictu</tspan><tspan x="36" y="8.4">r</tspan><tspan x="38.9" y="8.4">e of a child </tspan><tspan x="0" y="16.8">or pet as an </tspan><tspan x="40.1" y="16.8">av</tspan><tspan x="47.8" y="16.8">atar</tspan><tspan x="0" y="25.2">instead of t</tspan><tspan x="37.2" y="25.2">h</tspan><tspan x="41.7" y="25.2">emsel</tspan><tspan x="61.6" y="25.2">v</tspan><tspan x="65.5" y="25.2">es</tspan>
  </text>
  <text fill="#010101" transform="translate(216.36 217.46)" font-size="7" font-family="Roboto Slab">
    Mo<tspan x="10.4" y="0">r</tspan><tspan x="13.3" y="0">e li</tspan><tspan x="23.3" y="0">k</tspan><tspan x="27.5" y="0">ely </tspan><tspan x="39.1" y="0">t</tspan><tspan x="41.6" y="0">o wait for </tspan><tspan x="0" y="8.4">tech</tspan><tspan x="14.6" y="8.4">n</tspan><tspan x="19.1" y="8.4">ol</tspan><tspan x="25.1" y="8.4">ogy </tspan><tspan x="38.7" y="8.4">t</tspan><tspan x="41.2" y="8.4">o p</tspan><tspan x="51.1" y="8.4">r</tspan><tspan x="53.9" y="8.4">o</tspan><tspan x="57.8" y="8.4">v</tspan><tspan x="61.6" y="8.4">e </tspan><tspan x="0" y="16.8">itself befo</tspan><tspan x="32.9" y="16.8">r</tspan><tspan x="35.7" y="16.8">e buyi</tspan><tspan x="55.8" y="16.8">n</tspan><tspan x="60.2" y="16.8">g</tspan>
  </text>
  <path fill="#231f20" d="M207.7 295.2a12.7 12.7 0 0 1-12.7 12.6v-12.6l-11 6a12.7 12.7 0 1 1 23.7-6z"/>
  <path fill="#fff200" d="M195 295.2v12.6a12.7 12.7 0 0 1-11-6.5z"/>
  <text fill="#010101" transform="translate(216.36 288.25)" font-size="7" font-family="Roboto Slab">
    11% <tspan x="12.5" y="0">m</tspan><tspan x="19.1" y="0">o</tspan><tspan x="23" y="0">r</tspan><tspan x="25.8" y="0">e li</tspan><tspan x="35.8" y="0">k</tspan><tspan x="40" y="0">ely </tspan><tspan x="51.7" y="0">t</tspan><tspan x="54.2" y="0">o h</tspan><tspan x="64.4" y="0">a</tspan><tspan x="68.2" y="0">v</tspan><tspan x="72.1" y="0">e </tspan><tspan x="0" y="8.4">contacts both in t</tspan><tspan x="58.2" y="8.4">h</tspan><tspan x="62.7" y="8.4">eir </tspan><tspan x="0" y="16.8">cell </tspan><tspan x="13.7" y="16.8">ph</tspan><tspan x="22.4" y="16.8">o</tspan><tspan x="26.3" y="16.8">n</tspan><tspan x="30.8" y="16.8">e a</tspan><tspan x="40.1" y="16.8">n</tspan><tspan x="44.6" y="16.8">d also in a </tspan><tspan x="0" y="25.2">p</tspan><tspan x="4.2" y="25.2">hysical add</tspan><tspan x="42.4" y="25.2">r</tspan><tspan x="45.2" y="25.2">ess bo</tspan><tspan x="65.8" y="25.2">o</tspan><tspan x="69.7" y="25.2">k</tspan>
  </text>
  <text fill="#231f20" transform="translate(48.95 170.94)" font-size="7.5" font-family="Roboto Slab">
    Both a<tspan x="22.7" y="0">r</tspan><tspan x="25.8" y="0">e enthusiastic users of social </tspan><tspan x="130.8" y="0">m</tspan><tspan x="137.9" y="0">edia, but cat peo</tspan><tspan x="195.4" y="0">p</tspan><tspan x="199.9" y="0">le tweet </tspan><tspan x="229.8" y="0">m</tspan><tspan x="236.9" y="0">o</tspan><tspan x="241.1" y="0">r</tspan><tspan x="244.1" y="0">e.</tspan>
  </text>
  <path fill="none" stroke="#231f20" stroke-miterlimit="10" d="M101 204H49v184"/>
  <path fill="none" stroke="#231f20" stroke-miterlimit="10" d="M226 204h-52v184"/>
  <rect width="139.5" height="24" x="99" y="128.5" fill="#231f20" rx="10.1" ry="10.1"/>
  <text fill="#fff" transform="translate(120.32 145.49)" font-size="14" font-family="Roboto Slab">
    TECHNO<tspan x="58" y="0">L</tspan><tspan x="65.8" y="0">OGY</tspan>
  </text>
  <path fill="#cdcccc" d="M26 109h3v3h-3z"/>
  <path fill="#cdcccc" d="M29.7 107h3v5h-3z"/>
  <path fill="#cdcccc" d="M37 103.5h2.8v8.4h-3z"/>
  <path fill="#cdcccc" d="M40.5 101.5h3V112h-3z"/>
  <path fill="#cdcccc" d="M33.3 105.5h3v6.4h-3z"/>
  <text fill="#cdcccc" transform="translate(47.95 110)" font-size="12.3" font-family="Helvetica" font-weight="700">
    Carrier
  </text>
  <text fill="#cdcccc" transform="translate(141.75 110)" font-size="12.3" font-family="Helvetica" font-weight="700">
    12:00 PM
  </text>
  <path fill="#cdcccc" d="M311.4 103.7H309v-2.4h-18.4v9H309v-2.5h2.4v-4"/>
  <path fill="#fff" d="M317.2 389.6V94h-297v295.6H1v-339C1 23.2 20.6 1 45 1h247.5c24.3 0 44 22.2 44 49.6v339h-19.3z"/>
  <path fill="#cdcccc" d="M292.5 1.8c23.8 0 43.2 22 43.2 48.8v338H318V93.2H19.5V389H1.8V51C1.8 24 21.2 2 45 2h247.5m0-1.8H45C20 0 0 22.7 0 50.6v340h21.2V95h295v295.5h21.3v-340c0-28-20-50.5-45-50.5z"/>
  <path fill="#cdcccc" d="M200 63c0 2.8-3.2 5-7 5h-48.4c-3.8 0-7-2.2-7-5 0-2.7 3-5 7-5H193c3.8 0 7 2.3 7 5z"/>
  <circle cx="168.8" cy="36.2" r="6" fill="#cdcccc"/>
</svg>
